<?xml version="1.0" encoding="utf-8"?>
<!-- Generator: Adobe Illustrator 24.3.0, SVG Export Plug-In . SVG Version: 6.00 Build 0)  -->
<svg version="1.1" id="Calque_1" xmlns="http://www.w3.org/2000/svg" xmlns:xlink="http://www.w3.org/1999/xlink" x="0px" y="0px"
	 viewBox="0 0 216 216" style="enable-background:new 0 0 216 216;" xml:space="preserve">
<style type="text/css">
	.st0{fill:#46767D;}
	.st1{fill:#7CCBC8;}
	.st2{fill:#9DAC3C;}
	.st3{fill:#FBB041;}
	.st4{fill:#DD654A;}
	.st5{fill:#AE8782;}
	.st6{fill:#535765;}
	.st7{fill:#DD654B;}
	.st8{fill:#FDFDFC;}
	.st9{fill:#FCFCFA;}
	.st10{fill:#FBF8F7;}
	.st11{fill:#FAFBFB;}
	.st12{fill:#EFF2F3;}
	.st13{fill:#B38D88;}
</style>
<rect y="0" class="st5" width="216" height="216"/>
<path class="st9" d="M76.01,150.71c0.6,7.65-1.66,13.71-8.69,16.69c-6.43,2.72-12.69,1.7-16.96-4.25
	c-4.43-6.18-4.73-12.76,0.58-18.75c4.93-5.56,10.98-6.48,17.64-3.31c2.81,1.34,16.4-4.99,16.68-7.92c0.03-0.32-0.71-1-1.14-1.05
	c-12.82-1.48-20.34-12.05-30.6-17.9c-2.22-1.27-5.9-3.78-5.62-4.87c0.7-2.72,4.43-2.04,6.87-2.71c27.76-7.6,55.58-15.01,83.36-22.53
	c2.82-0.76,3.34,0.03,3.28,2.84c-0.2,8.8-0.06,17.6-0.03,26.41c0,1.06,0.13,2.12,0.21,3.18c1.65-0.24,2.09-1.75,2.37-2.89
	c0.87-3.53,1.49-7.14,2.1-10.73c0.64-3.77,1.7-7.57,1.62-11.34c-0.4-18.15,10.97-27.67,25.19-35.26c2.22-1.19,4.26-1.28,5.61,1.05
	c1.29,2.23-0.05,3.91-1.92,4.94c-4.89,2.71-9.01,6.62-14.67,8.25c-4.15,1.19-7.27,3.97-7.82,9.23c-1.03,9.9-2.77,19.73-4.31,29.57
	c-0.46,2.95-0.52,6.86-3.12,8.18c-11.71,5.96-6.72,16.62-7.75,25.56c-0.29,2.54,1.2,5.66-1.58,7.35c-2.89,1.76-4.98-1.02-7.12-2.33
	c-5.53-3.4-11.42-6.47-16.21-10.74c-9.06-8.09-17.59-3.77-26.11,0.18c-3.55,1.65-6.55,4.54-9.72,6.97
	C75.99,146.15,73.41,147.76,76.01,150.71z M134.82,131.05c1.49-8.23-3.26-6.67-7.99-5.19c-1.58,0.5-3.26,0.73-4.78,1.36
	c-3.15,1.3-6.86,0.95-9.62,3.35c2.68,1.91,5.35,3.82,8.04,5.71c0.81,0.57,1.62,1.16,2.49,1.66c3.69,2.11,7.39,4.19,11.09,6.28
	C134.3,139.82,134.56,135.44,134.82,131.05z M62.71,161.4c0.71-0.25,1.55-0.41,2.25-0.82c2.79-1.65,5.2-4.62,3.61-7.23
	c-1.57-2.59-3.2,1.32-4.95,2.02c-1.3,0.52-2.53,1.35-3.5-0.06c-1.58-2.28,0.75-3.09,1.88-4.36c0.91-1.02,3.36-1.41,2.41-3.16
	c-0.97-1.79-3.24-1.53-4.95-0.79c-3.74,1.62-5.82,4.39-4.87,8.66C55.54,159.89,58.41,161.61,62.71,161.4z"/>
<path class="st13" d="M134.82,131.05c-0.26,4.39-0.52,8.77-0.77,13.16c-3.7-2.09-7.41-4.17-11.09-6.28
	c-0.86-0.49-1.67-1.08-2.49-1.66c-2.68-1.9-5.36-3.81-8.04-5.71c2.75-2.4,6.47-2.04,9.62-3.35c1.52-0.63,3.2-0.86,4.78-1.36
	C131.56,124.37,136.31,122.82,134.82,131.05z"/>
<path class="st13" d="M62.71,161.4c-4.3,0.21-7.17-1.51-8.11-5.74c-0.95-4.27,1.13-7.04,4.87-8.66c1.7-0.74,3.98-1,4.95,0.79
	c0.94,1.74-1.51,2.14-2.41,3.16c-1.13,1.27-3.46,2.08-1.88,4.36c0.97,1.41,2.2,0.58,3.5,0.06c1.75-0.7,3.38-4.61,4.95-2.02
	c1.59,2.62-0.82,5.58-3.61,7.23C64.26,160.99,63.41,161.15,62.71,161.4z"/>
</svg>
