<?xml version="1.0" encoding="utf-8"?>
<!-- Generator: Adobe Illustrator 24.3.0, SVG Export Plug-In . SVG Version: 6.00 Build 0)  -->
<svg version="1.1" id="Calque_1" xmlns="http://www.w3.org/2000/svg" xmlns:xlink="http://www.w3.org/1999/xlink" x="0px" y="0px"
	 viewBox="0 0 216 216" style="enable-background:new 0 0 216 216;" xml:space="preserve">
<style type="text/css">
	.st0{fill:#46767D;}
	.st1{fill:#7CCBC8;}
	.st2{fill:#9DAC3C;}
	.st3{fill:#FBB041;}
	.st4{fill:#DD654A;}
	.st5{fill:#AE8782;}
	.st6{fill:#535765;}
	.st7{fill:#DD654B;}
	.st8{fill:#FDFDFC;}
	.st9{fill:#FCFCFA;}
	.st10{fill:#FBF8F7;}
	.st11{fill:#FAFBFB;}
	.st12{fill:#EFF2F3;}
	.st13{fill:#B38D88;}
</style>
<rect class="st3" width="216" height="216"/>
<path class="st9" d="M98.92,58.95c8.74,0.19,19.24,0.17,29.71,0.72c10.99,0.57,19.93,9.84,21.05,21.8
	c0.82,8.8,1.33,16.77,10.18,22.71c7.92,5.31,5.81,15.22,5.73,23.65c-0.12,12.72-0.12,12.5-12.95,12.2
	c-29.27-0.69-58.55-1.28-87.83-1.58c-6.81-0.07-9.4-2.44-8.45-9.28c0.73-5.24,0.45-10.62,0.98-15.9c0.62-6.19,3.76-11.17,9.24-14.01
	c4.09-2.11,5.64-4.99,6.05-9.38c0.41-4.45,1.47-8.87,2.59-13.21C78.07,65.64,85.79,59.54,98.92,58.95z M101.78,67.75
	C89.3,68.17,84.6,72.08,82.6,81.78c-0.64,3.1-0.67,6.35-1.61,9.34c-1.35,4.27,0.59,5,4.18,5.04c14.29,0.15,28.57,0.63,42.86,0.59
	c16.23-0.04,16.23-0.23,12.8-16.03c-0.04-0.16-0.05-0.33-0.1-0.49c-2.15-6.99-6.2-11.67-14.12-11.84
	C117.46,68.2,108.31,67.92,101.78,67.75z M157.64,117.71c-1.26-3.55-3.02-7.27-8.01-6.88c-4.83,0.38-6.88,3.69-6.72,8.28
	c0.17,4.79,2.85,7.55,7.65,7.22C155.32,126.02,157.37,122.73,157.64,117.71z M65.35,117.3c0.38,4.99,2.61,7.67,7.31,7.43
	c4.78-0.25,7.39-3.21,7.12-7.81c-0.25-4.34-2.67-7.75-7.5-7.6C67.11,109.47,65.33,113.04,65.35,117.3z M122.99,118.09
	c2.21-0.5,5.78,0.65,5.83-1.73c0.07-3.06-3.54-2.1-5.66-2.18c-8.13-0.29-16.28-0.42-24.41-0.52c-1.9-0.02-4.95-0.7-5.16,1.6
	c-0.25,2.69,2.86,2.12,4.7,2.19C106.58,117.74,114.89,117.9,122.99,118.09z M124.46,126.12c1.55-0.63,4.48,1.03,4.6-1.26
	c0.11-2.32-2.82-2.21-4.76-2.24c-9.11-0.16-18.22-0.24-27.33-0.37c-1.48-0.02-3.72-0.37-3.76,1.33c-0.04,2.09,2.36,1.78,3.92,1.83
	C106.23,125.69,115.34,125.9,124.46,126.12z"/>
<path class="st9" d="M63.72,154.74c-0.1-1.23-0.13-1.39-0.13-1.56c-0.46-11.54,2.9-14.16,14.15-11.02c0.46,0.13,1.28,0.22,1.32,0.45
	c1.28,6.19,1.56,12.71-0.33,18.48c-1.32,4.04-6.55,2.62-10.28,2C62.66,162.14,64.27,157.31,63.72,154.74z"/>
<path class="st9" d="M149.34,164.28c-3.86,0.38-9.04,1.02-8.24-4.52c0.78-5.4-4.22-13.24,3.8-15.84c3.2-1.04,11.05-3.63,11.97,2.48
	C159.13,161.33,157.46,163.6,149.34,164.28z"/>
<path class="st10" d="M63.21,92.32c-2.49,0.38-5.18-0.3-5.53-3.94c-0.32-3.35,1.48-5.12,5.03-5.19c3.43-0.06,6.62,0.34,6.91,4.49
	C69.88,91.47,66.87,92.04,63.21,92.32z"/>
<path class="st9" d="M161.18,94.49c-2.71-0.54-6.18-0.17-6.63-4.28c-0.39-3.66,1.88-4.98,5.12-5.11c3.18-0.12,6.22,0.33,6.53,4.29
	C166.46,92.64,164.21,93.99,161.18,94.49z"/>
<path class="st3" d="M101.78,67.75c6.54,0.17,15.68,0.44,24.83,0.63c7.91,0.16,11.97,4.84,14.12,11.84c0.05,0.16,0.07,0.33,0.1,0.49
	c3.43,15.8,3.43,15.99-12.8,16.03c-14.29,0.04-28.57-0.44-42.86-0.59c-3.59-0.04-5.53-0.77-4.18-5.04c0.94-2.98,0.97-6.24,1.61-9.34
	C84.6,72.08,89.3,68.17,101.78,67.75z"/>
<path class="st3" d="M157.64,117.71c-0.26,5.02-2.31,8.3-7.08,8.62c-4.8,0.32-7.48-2.43-7.65-7.22c-0.16-4.59,1.89-7.9,6.72-8.28
	C154.61,110.44,156.38,114.16,157.64,117.71z"/>
<path class="st3" d="M65.35,117.3c-0.02-4.27,1.76-7.84,6.93-7.99c4.83-0.14,7.24,3.26,7.5,7.6c0.27,4.6-2.34,7.56-7.12,7.81
	C67.96,124.97,65.73,122.29,65.35,117.3z"/>
<path class="st3" d="M122.99,118.09c-8.11-0.2-16.41-0.35-24.71-0.65c-1.84-0.07-4.95,0.5-4.7-2.19c0.21-2.29,3.26-1.62,5.16-1.6
	c8.14,0.1,16.28,0.23,24.41,0.52c2.12,0.08,5.73-0.88,5.66,2.18C128.77,118.74,125.2,117.6,122.99,118.09z"/>
<path class="st3" d="M124.45,126.13c-9.11-0.23-18.22-0.44-27.32-0.73c-1.55-0.05-3.96,0.26-3.92-1.83
	c0.04-1.69,2.27-1.35,3.76-1.33c9.11,0.13,18.22,0.21,27.33,0.37c1.94,0.03,4.87-0.08,4.76,2.24
	C128.94,127.15,126.01,125.49,124.45,126.13z"/>
</svg>
