<?xml version="1.0" encoding="utf-8"?>
<!-- Generator: Adobe Illustrator 24.3.0, SVG Export Plug-In . SVG Version: 6.00 Build 0)  -->
<svg version="1.1" id="Calque_1" xmlns="http://www.w3.org/2000/svg" xmlns:xlink="http://www.w3.org/1999/xlink" x="0px" y="0px"
	 viewBox="0 0 216 216" style="enable-background:new 0 0 216 216;" xml:space="preserve">
<style type="text/css">
	.st0{fill:#46767D;}
	.st1{fill:#7CCBC8;}
	.st2{fill:#9DAC3C;}
	.st3{fill:#FBB041;}
	.st4{fill:#DD654A;}
	.st5{fill:#AE8782;}
	.st6{fill:#535765;}
	.st7{fill:#DD654B;}
	.st8{fill:#FDFDFC;}
	.st9{fill:#FCFCFA;}
	.st10{fill:#FBF8F7;}
	.st11{fill:#FAFBFB;}
	.st12{fill:#EFF2F3;}
	.st13{fill:#B38D88;}
</style>
<rect class="st3" width="216" height="216"/>
<path class="st8" d="M57.14,156.63c3.69-11.11,1.43-24.63,11.52-34.61c4.29-4.25,3.82-10.25,1.2-15.93
	c-3.19-6.94-5.9-14.1-8.93-21.11c-1.16-2.69-0.94-4.88,1.65-6.47c2.73-1.67,4.73-0.4,6.4,1.82c0.1,0.13,0.23,0.25,0.29,0.4
	C74.84,95.1,86.15,97.65,99.76,95.7c2.28-0.33,4.71,0.29,6.98-0.1c17.7-3.02,32.01,4.42,45.52,14.46c1.32,0.98,3.21,1.75,2.59,3.79
	c-4.24,14-1.26,28.4-2.41,42.56c-0.36,4.43-0.59,8.84-6.19,9.03c-5.55,0.19-7.18-3.87-7.46-8.68c-0.13-2.32-0.36-4.65-0.38-6.97
	c-0.08-11.64-0.06-11.59-11.49-12.78c-10.1-1.05-20.01-2.64-29.35-7.15c-7.57-3.65-22.49,6.52-24.48,16.34
	c-0.92,4.55-1.24,9.24-2.33,13.75c-0.92,3.81-3.8,6.1-7.79,5.4C58.77,164.63,56.98,161.53,57.14,156.63z"/>
<path class="st9" d="M170.51,100.06c-4.33,0.18-9.21-1.21-11.37,4.63c-0.73,1.98-2.04,0.1-2.74-0.33
	c-7.11-4.31-14.1-8.83-21.22-13.12c-2.28-1.37-2.68-2.83-0.97-4.7c6.1-6.68,10.34-13.74,6.99-23.38c-0.79-2.26,1.32-4.66,3.78-5.1
	c2.46-0.44,4.95,1.03,5.42,3.47c1.5,7.74,7.48,10.45,13.68,13.17c4.72,2.07,9.36,4.33,14.01,6.54c3.86,1.84,7.7,3.68,6.3,9.19
	c-1.45,5.72-3.58,10.56-10.89,9.65C172.53,99.96,171.51,100.06,170.51,100.06z"/>
<path class="st10" d="M122.7,90.97c-3.52-2.14-7.75-4.69-11.97-7.27c-10.05-6.14-20.11-12.27-30.15-18.43
	c-1.96-1.2-4.33-2.08-5.19-4.43c-0.79-2.16-1.92-5.01-0.31-6.62c1.58-1.58,3.56,0.9,5.1,1.85c14.83,9.13,29.56,18.44,44.37,27.6
	c2.06,1.27,3.39,2.8,3.07,5.16C127.33,91.01,125.37,90.88,122.7,90.97z"/>
</svg>
