<?xml version="1.0" encoding="utf-8"?>
<!-- Generator: Adobe Illustrator 24.3.0, SVG Export Plug-In . SVG Version: 6.00 Build 0)  -->
<svg version="1.1" id="Calque_1" xmlns="http://www.w3.org/2000/svg" xmlns:xlink="http://www.w3.org/1999/xlink" x="0px" y="0px"
	 viewBox="0 0 216 216" style="enable-background:new 0 0 216 216;" xml:space="preserve">
<style type="text/css">
	.st0{fill:#46767D;}
	.st1{fill:#7CCBC8;}
	.st2{fill:#9DAC3C;}
	.st3{fill:#FBB041;}
	.st4{fill:#DD654A;}
	.st5{fill:#AE8782;}
	.st6{fill:#535765;}
	.st7{fill:#DD654B;}
	.st8{fill:#FDFDFC;}
	.st9{fill:#FCFCFA;}
	.st10{fill:#FBF8F7;}
	.st11{fill:#FAFBFB;}
	.st12{fill:#EFF2F3;}
	.st13{fill:#B38D88;}
</style>
<rect y="0" class="st1" width="216" height="216"/>
<path class="st8" d="M71.29,77.09c-0.85-8.75,2.41-16.68,5.34-24.6c1.12-3.03,3.61-3.9,6.11-0.81c11.28,13.97,22.62,27.9,33.8,41.95
	c2.69,3.38,2.43,7.52,1.41,11.48c-0.91,3.51-0.89,6.96,0.21,10.34c2.15,6.6,6.8,8.21,11.36,3.37c12.76-13.51,35.58,1.09,39.91,15.37
	c3.52,11.61-0.69,23.41-10.41,28.35c-6.96,3.53-13.63,3.07-19.42-2.29c-23.98-22.19-46.3-45.88-64.95-72.83
	C72.49,84.31,71.53,80.83,71.29,77.09z M135.1,134.23c1.14,9.78,10.29,18.83,17.08,17.94c6.5-0.85,6.95-6.01,6.49-10.95
	c-0.73-7.74-9.82-15.71-16.4-14.56C137.34,127.52,134.88,130.69,135.1,134.23z M110.65,106.81c2.71-0.64,4.54-2.35,4.49-5.11
	c-0.05-2.79-1.94-4.72-4.77-4.7c-3.11,0.03-4.9,2.14-4.73,5.2C105.8,105.05,107.82,106.47,110.65,106.81z"/>
<path class="st11" d="M75.24,164.95c-16.96,1.57-27.75-16.78-20.68-32.45c4.48-9.94,12.38-15.84,22.64-18.7
	c4.58-1.28,9.17-0.21,12.77,2.67c5.95,4.76,12.17,9.3,16.81,15.52c1.11,1.49,2.66,2.8,0.76,4.67c-8.64,8.48-17.2,17.07-26.05,25.32
	C79.54,163.78,76.48,164.39,75.24,164.95z M71.05,152.58c9.27-1.14,17.58-11.25,16.51-18.53c-0.72-4.86-3.9-7.91-8.99-7.31
	c-7.87,0.92-15.57,11.17-14.39,18.95C64.9,150.46,67.89,152.92,71.05,152.58z"/>
<path class="st8" d="M151.03,68.65c1.11,8.5-0.8,15.64-5.75,22.02c-5.49,7.08-10.8,14.31-16.34,21.35
	c-1.32,1.68-2.25,5.14-4.84,4.09c-2.93-1.2-3.72-4.56-3.01-7.72c1.44-6.46,2.88-13.44-2.06-18.51c-5.65-5.78-3.33-9.45,0.89-14.25
	c6.8-7.73,13.07-15.92,19.56-23.92c2.32-2.85,4.34-3.48,6.18,0.52C148.16,57.67,150.81,63.04,151.03,68.65z"/>
<path class="st1" d="M135.1,134.23c-0.21-3.53,2.24-6.71,7.17-7.57c6.58-1.15,15.67,6.82,16.4,14.56
	c0.46,4.94,0.02,10.09-6.49,10.95C145.39,153.06,136.24,144,135.1,134.23z"/>
<path class="st1" d="M110.65,106.81c-2.83-0.34-4.85-1.77-5-4.61c-0.17-3.06,1.62-5.17,4.73-5.2c2.83-0.03,4.71,1.91,4.77,4.7
	C115.19,104.47,113.36,106.17,110.65,106.81z"/>
<path class="st1" d="M71.05,152.58c-3.16,0.34-6.15-2.12-6.87-6.9c-1.18-7.78,6.52-18.03,14.39-18.95c5.1-0.59,8.28,2.46,8.99,7.31
	C88.63,141.33,80.32,151.44,71.05,152.58z"/>
</svg>
