<?xml version="1.0" encoding="utf-8"?>
<!-- Generator: Adobe Illustrator 24.3.0, SVG Export Plug-In . SVG Version: 6.00 Build 0)  -->
<svg version="1.1" id="Calque_1" xmlns="http://www.w3.org/2000/svg" xmlns:xlink="http://www.w3.org/1999/xlink" x="0px" y="0px"
	 viewBox="0 0 216 216" style="enable-background:new 0 0 216 216;" xml:space="preserve">
<style type="text/css">
	.st0{fill:#46767D;}
	.st1{fill:#7CCBC8;}
	.st2{fill:#9DAC3C;}
	.st3{fill:#FBB041;}
	.st4{fill:#DD654A;}
	.st5{fill:#AE8782;}
	.st6{fill:#535765;}
	.st7{fill:#DD654B;}
	.st8{fill:#FDFDFC;}
	.st9{fill:#FCFCFA;}
	.st10{fill:#FBF8F7;}
	.st11{fill:#FAFBFB;}
	.st12{fill:#EFF2F3;}
	.st13{fill:#B38D88;}
</style>
<rect y="0" class="st6" width="216" height="216"/>
<path class="st11" d="M91.66,109.31c-1.12,11.34-14.16,18.14-23.68,12.85c-2.49-1.39-4.21-3.57-4.55-6.74
	c-1.24-11.73-2.64-23.43-3.97-35.15c-0.8-6.99,2.82-10.55,9.36-10.68c22.27-0.44,44.54-0.62,66.82-0.8
	c6.25-0.05,10.39,2.85,13.24,8.7c1.55,3.18,8.87,4.7,1.38,9.11c1.78,14.86,3.57,29.72,5.35,44.58c0.19,1.63,1.02,2.31,2.66,2.21
	c2.12-0.12,4.17-0.06,3.88,3.01c-0.26,2.76-2.42,2.35-4.14,2.37c-22.95,0.27-45.9,0.48-68.86,0.72c-8.65,0.09-17.3,0.27-25.94,0.28
	c-2.08,0-5.19,1.08-5.18-2.72c0.01-3.5,3.01-2.52,4.89-2.56c12.8-0.25,25.61-0.25,38.42-0.51c10.69-0.21,17.37-7.55,17.11-18.48
	c-0.32-13.33-9.1-20.16-22.01-16.85C90.28,100.24,92.78,106.01,91.66,109.31z M145.85,110.34c-0.22-6.37-3.11-10.74-9.65-11.26
	c-6.47-0.52-10.62,3.03-11.17,9.47c-0.53,6.25,3.08,10.29,9.16,10.97C140.63,120.23,144.41,116.53,145.85,110.34z M65.94,81.66
	c1.03,8.58,2.09,17.32,3.1,26.07c0.23,2.02,0.19,4.5,2.98,4.21c2.88-0.3,2.18-2.93,1.98-4.79c-0.81-7.43-1.78-14.84-2.63-22.26
	c-0.25-2.13-0.73-4.4,2.45-5.03c1.37-0.27,2.43-1.24,1.72-2.94c-0.63-1.5-1.87-1.65-3.32-1.5C68.51,75.8,66.6,77.96,65.94,81.66z
	 M122.87,89.27c3.12,0.24,4.92-1.34,5.28-3.81c0.36-2.51-1.02-4.56-3.8-4.93c-2.94-0.39-5.02,1.09-5.25,3.97
	C118.91,87.03,120.46,88.84,122.87,89.27z"/>
<path class="st10" d="M163.15,143.27c5.61-0.67,5.77,4.37,6.2,8.55c0.54,5.28-3.8,4-6.66,4.03c-34.92,0.41-69.85,0.77-104.77,1
	c-2.57,0.02-6.83,1.55-6.71-3.41c0.12-4.79,0.92-9.23,7.69-9.24c24.45-0.03,48.89-0.37,73.34-0.6
	C142.22,143.51,152.2,143.39,163.15,143.27z"/>
<path class="st10" d="M96.07,54.88c3.93-3.72-2.98-16.08,8.29-14.65c8.7,1.11,6.61,12.09,6.55,18.08
	c-0.06,5.74-7.76,2.26-12.02,2.84C94.92,61.69,95.65,58.43,96.07,54.88z"/>
<path class="st12" d="M164.32,90.83c-0.22,2.55,0.33,5.23-3.27,5.29c-3.55,0.06-3.87-2.11-3.84-4.95c0.07-6.3-0.05-12.6-0.18-18.9
	c-0.05-2.68,1.02-3.99,3.79-3.98c2.78,0.01,3.25,1.73,3.28,3.94C164.17,78.54,164.25,84.84,164.32,90.83z"/>
<path class="st10" d="M128.47,61.14c-2.86-0.42-6.6,0.42-5.18-3.68c1.63-4.69-1.66-13.55,6.42-13.03c7.2,0.47,4.82,9.13,5.48,13.98
	C135.86,63.22,130.26,59.62,128.47,61.14z"/>
<path class="st12" d="M79.21,123.8c1.13,0.34,3.33-0.23,2.57,1.38c-0.97,2.04-4.1,2.74-4.25,5.64c-0.31-2.94-4.78-3.92-4.44-5.44
	C73.71,122.56,77.25,124.69,79.21,123.8z"/>
<path class="st12" d="M105.7,63.3c0.06,3.74-1.25,3.62-2.37,3.74c-1.3,0.13-1.69-0.62-1.73-1.77c-0.06-1.51,0.78-2.04,2.11-2.1
	C105.2,63.11,105.72,63.98,105.7,63.3z"/>
<path class="st12" d="M129.74,63.08c1.26,0.07,1.68,0.78,1.62,1.97c-0.09,1.58-1.17,1.89-2.4,1.82c-1.71-0.11-1.5-1.45-1.43-2.59
	C127.62,62.75,128.81,63.12,129.74,63.08z"/>
<path class="st6" d="M145.85,110.34c-1.44,6.19-5.22,9.89-11.66,9.17c-6.08-0.68-9.69-4.71-9.16-10.97
	c0.55-6.44,4.7-9.99,11.17-9.47C142.74,99.6,145.64,103.97,145.85,110.34z M134.58,115.85c4.11,0.05,6.95-1.84,7.39-5.85
	c0.44-3.97-1.72-6.73-5.84-7.24c-4.18-0.51-6.75,1.77-7.24,5.75C128.39,112.56,130.62,115.02,134.58,115.85z"/>
<path class="st6" d="M65.94,81.66c0.66-3.7,2.57-5.86,6.27-6.24c1.45-0.15,2.69,0.01,3.32,1.5c0.72,1.7-0.34,2.66-1.72,2.94
	c-3.18,0.64-2.69,2.9-2.45,5.03c0.85,7.42,1.83,14.83,2.63,22.26c0.2,1.86,0.9,4.49-1.98,4.79c-2.79,0.29-2.74-2.2-2.98-4.21
	C68.03,98.98,66.97,90.24,65.94,81.66z"/>
<path class="st6" d="M122.87,89.27c-2.41-0.43-3.96-2.24-3.76-4.77c0.23-2.88,2.3-4.36,5.25-3.97c2.77,0.37,4.16,2.42,3.8,4.93
	C127.8,87.93,125.99,89.51,122.87,89.27z"/>
<path class="st10" d="M134.58,115.85c-3.96-0.83-6.19-3.29-5.69-7.34c0.49-3.98,3.06-6.26,7.24-5.75c4.12,0.51,6.28,3.27,5.84,7.24
	C141.53,114.01,138.69,115.9,134.58,115.85z"/>
</svg>
