<?xml version="1.0" encoding="utf-8"?>
<!-- Generator: Adobe Illustrator 24.3.0, SVG Export Plug-In . SVG Version: 6.00 Build 0)  -->
<svg version="1.1" id="Calque_1" xmlns="http://www.w3.org/2000/svg" xmlns:xlink="http://www.w3.org/1999/xlink" x="0px" y="0px"
	 viewBox="0 0 216 216" style="enable-background:new 0 0 216 216;" xml:space="preserve">
<style type="text/css">
	.st0{fill:#46767D;}
	.st1{fill:#7CCBC8;}
	.st2{fill:#9DAC3C;}
	.st3{fill:#FBB041;}
	.st4{fill:#DD654A;}
	.st5{fill:#AE8782;}
	.st6{fill:#535765;}
	.st7{fill:#DD654B;}
	.st8{fill:#FDFDFC;}
	.st9{fill:#FCFCFA;}
	.st10{fill:#FBF8F7;}
	.st11{fill:#FAFBFB;}
	.st12{fill:#EFF2F3;}
	.st13{fill:#B38D88;}
</style>
<rect y="0" class="st2" width="216" height="216"/>
<path class="st8" d="M150.62,108.02c0.03,2.86-1.99,4.08-4.19,5c-10.73,4.48-21.53,8.81-32.23,13.37c-4.04,1.72-6.31,0.26-7.84-3.41
	c-4.39-10.6-8.7-21.23-13.24-31.76c-1.8-4.18-0.45-6.76,3.37-8.38c10.71-4.54,21.46-8.98,32.18-13.5c3.05-1.29,5.85-1.03,7.2,2.13
	c4.91,11.47,9.57,23.05,14.31,34.6C150.42,106.68,150.48,107.36,150.62,108.02z"/>
<path class="st10" d="M119.04,147.42c0.01,10.79-8.24,19.07-18.91,18.99c-10.32-0.07-18.79-8.48-18.86-18.71
	c-0.07-10.94,8.17-18.83,19.57-18.74C111.2,129.04,119.04,136.99,119.04,147.42z M108.71,148.13c-0.68-4.83-2.64-8.62-7.7-8.53
	c-4.85,0.08-9.06,2.27-8.94,7.98c0.1,4.68,2.69,7.81,7.81,7.97C105.17,155.7,107.61,152.53,108.71,148.13z"/>
<path class="st10" d="M55.26,69.17c5.9,1.68,13.43,3.64,20.83,6.03c2.4,0.78,3.62,3.28,4.55,5.68c4.88,12.54,9.72,25.11,14.77,37.58
	c1.2,2.96,0.52,4.48-2.46,4.92c-2.72,0.41-5.91,4.81-8.07-0.87c-3.84-10.09-8.1-20.05-11.54-30.27c-1.88-5.58-5.14-8.51-10.71-9.66
	c-3.88-0.8-7.71-1.98-11.46-3.29c-2.6-0.91-4.06-3.04-3.48-5.86C48.32,70.42,50.53,69.11,55.26,69.17z"/>
<path class="st10" d="M164.91,121.84c-0.11,2.81-1.69,4.41-3.95,5.41c-10.77,4.76-21.62,9.36-32.32,14.29
	c-3.42,1.57-4.26-0.48-4.85-2.75c-0.63-2.42-4.51-5.29,0.29-7.41c10.92-4.82,21.87-9.61,32.89-14.21
	C161.49,115.27,163.77,117.87,164.91,121.84z"/>
<path class="st2" d="M108.71,148.13c-1.1,4.4-3.54,7.58-8.84,7.41c-5.12-0.16-7.71-3.29-7.81-7.97c-0.12-5.7,4.09-7.89,8.94-7.98
	C106.08,139.51,108.03,143.3,108.71,148.13z"/>
</svg>
