<?xml version="1.0" encoding="utf-8"?>
<!-- Generator: Adobe Illustrator 24.3.0, SVG Export Plug-In . SVG Version: 6.00 Build 0)  -->
<svg version="1.1" id="Calque_1" xmlns="http://www.w3.org/2000/svg" xmlns:xlink="http://www.w3.org/1999/xlink" x="0px" y="0px"
	 viewBox="0 0 216 216" style="enable-background:new 0 0 216 216;" xml:space="preserve">
<style type="text/css">
	.st0{fill:#46767D;}
	.st1{fill:#7CCBC8;}
	.st2{fill:#9DAC3C;}
	.st3{fill:#FBB041;}
	.st4{fill:#DD654A;}
	.st5{fill:#AE8782;}
	.st6{fill:#535765;}
	.st7{fill:#DD654B;}
	.st8{fill:#FDFDFC;}
	.st9{fill:#FCFCFA;}
	.st10{fill:#FBF8F7;}
	.st11{fill:#FAFBFB;}
	.st12{fill:#EFF2F3;}
	.st13{fill:#B38D88;}
</style>
<rect y="-0.4" class="st2" width="216" height="216"/>
<path class="st9" d="M150.56,88.67c-3.49,5.77-7.55,12.42-11.52,19.13c-0.57,0.96-2.13,2-0.59,3.23c0.18,0.14,1.87-1.14,2.43-2.03
	c4.21-6.78,8.26-13.66,12.48-20.43c1.75-2.8,4.18-5.46,7.69-3.36c3.46,2.08,3.2,5.26,1.11,8.64c-4.01,6.52-7.78,13.19-11.57,19.84
	c-0.45,0.78-0.82,2.49-0.58,2.63c1.49,0.84,1.9-0.71,2.44-1.56c2.65-4.23,5.16-8.54,7.79-12.78c1.85-2.97,4.55-4.86,7.89-3.04
	c3.64,1.99,2.75,5.17,0.97,8.19c-4.14,7.02-8.25,14.05-12.33,21.1c-0.47,0.81-1.11,2.04-0.81,2.68c0.66,1.44,2.06,0.42,3.07,0.21
	c2.28-0.47,4.49-1.28,6.76-1.73c3.84-0.77,7.21,0.07,8.4,4.2c1.1,3.85-0.52,6.94-4.23,8.53c-5.96,2.56-11.85,5.49-18.06,7.24
	c-9.87,2.77-14.97,9.47-18.43,18.53c-3.88,10.15-4.43,10.12-13.79,4.99c-10.35-5.67-20.65-11.41-31.05-16.98
	c-3.67-1.96-4.9-4.12-2.21-7.84c14.34-19.83,26.1-41.27,38.5-62.3c0.59-1,1.18-2.02,1.88-2.94c1.87-2.45,4.28-3.19,7.03-1.7
	c2.94,1.59,3.2,4.22,1.75,6.85c-3.05,5.53-6.35,10.92-9.47,16.41c-0.52,0.91-1.32,2.17,0.11,2.94c0.24,0.13,1.4-1.05,1.86-1.8
	c4.41-7.22,8.69-14.51,13.16-21.7c1.5-2.41,3.68-4.03,6.73-2.51C150.52,82.61,151.44,84.79,150.56,88.67z"/>
<path class="st9" d="M117.87,85.53c-2.99,11.38-10.75,20.17-16.52,30.02c-5.28,9.04-11.36,17.61-16.57,26.69
	c-3.7,6.45-9.4,5.26-14.44,4.01c-5.34-1.32-3.22-6.23-2.37-9.71c2.51-10.2,1.37-19.09-6.72-26.81c-4.28-4.09-7.38-9.41-11.14-14.08
	c-2.38-2.95-3.33-5.66-0.19-8.73c3.15-3.08,6.35-3.21,9.81-0.68c0.13,0.1,0.26,0.21,0.4,0.3c2.9,1.75,5.15,7.38,7.52,5.88
	c2.68-1.69,0.97-7.07,1.08-10.84c0.15-5.31,0.12-10.63,0.28-15.95c0.11-3.75,1.64-6.74,5.83-6.62c3.94,0.11,5.2,3.01,5.21,6.59
	c0,5.48-0.01,10.96,0.06,16.44c0.01,0.87,0.41,2.48,0.63,2.48c1.69,0,1.46-1.45,1.48-2.54c0.15-7.8,0.16-15.6,0.43-23.4
	c0.13-3.58-0.1-7.93,5.35-7.77c5.23,0.16,5.23,4.19,5.19,7.96c-0.08,7.47-0.26,14.94-0.34,22.41c-0.01,1.2-0.84,2.72,0.96,3.45
	c0.39-1.2,1.09-2.38,1.13-3.59c0.23-6.31,0.23-12.63,0.46-18.94c0.13-3.62-0.23-7.93,5.22-7.86c5.21,0.07,5.35,3.92,5.26,7.83
	c-0.17,7.48-0.27,14.97-0.33,22.45c-0.01,0.87-0.34,2.22,1.04,2.32c0.3,0.02,0.99-1.52,1.02-2.36c0.25-5.82,0.39-11.64,0.55-17.46
	c0.1-3.46,1.51-5.87,5.27-5.9c3.92-0.03,5.3,2.6,5.01,5.98C117.93,73.22,119.44,79.42,117.87,85.53z"/>
</svg>
