<?xml version="1.0" encoding="utf-8"?>
<!-- Generator: Adobe Illustrator 24.3.0, SVG Export Plug-In . SVG Version: 6.00 Build 0)  -->
<svg version="1.1" id="Calque_1" xmlns="http://www.w3.org/2000/svg" xmlns:xlink="http://www.w3.org/1999/xlink" x="0px" y="0px"
	 viewBox="0 0 216 216" style="enable-background:new 0 0 216 216;" xml:space="preserve">
<style type="text/css">
	.st0{fill:#46767D;}
	.st1{fill:#7CCBC8;}
	.st2{fill:#9DAC3C;}
	.st3{fill:#FBB041;}
	.st4{fill:#DD654A;}
	.st5{fill:#AE8782;}
	.st6{fill:#535765;}
	.st7{fill:#DD654B;}
	.st8{fill:#FDFDFC;}
	.st9{fill:#FCFCFA;}
	.st10{fill:#FBF8F7;}
	.st11{fill:#FAFBFB;}
	.st12{fill:#EFF2F3;}
	.st13{fill:#B38D88;}
</style>
<rect y="0" class="st0" width="216" height="216"/>
<path class="st11" d="M105.97,181.42c-8.61-0.43-17.99-2.49-26.54-7.38c-16.55-9.48-18.09-31.67-2.64-44.23
	c7.2-5.86,10.92-11.98,9.97-21.71c-1.15-11.91,5.65-18.24,17.75-17.96c3.3,0.08,4.72-0.9,5.57-4.01c1.23-4.48,4.17-8.8,4.23-13.22
	c0.15-11.78,5.2-22.57,5.92-34.1c0.28-4.38,3.71-4.24,6.03-5.35c2.97-1.42,6.01-0.16,7.94,2.47c1.53,2.07,4.02,3.78,2.12,7.35
	c-3.07,5.77-2.82,12.92-5.44,18.5c-4.23,9.01-6.22,18.21-7.69,27.81c-0.45,2.94-0.22,4.37,2.58,5.84
	c11.58,6.08,14.17,14.67,6.83,25.38c-4.9,7.15-4.51,13.51-1.29,21.01C140.02,162.08,128.04,181.41,105.97,181.42z M93.43,135.86
	c0.55,5.86,4.05,9.89,10.86,10.41c6.23,0.47,11.73-4.76,11.86-10.85c0.13-6.16-4.97-11.46-11.18-11.63
	C98.75,123.62,93.58,128.65,93.43,135.86z M88.59,154.2c0.18,0.04-0.94-0.43-1.4,0.87c-0.64,1.81,0.97,1.79,1.97,2.05
	c6.39,1.63,12.79,3.21,19.2,4.78c0.85,0.21,1.93,1.01,2.45-0.5c0.57-1.69-0.71-1.96-1.83-2.23
	C102.55,157.58,96.13,156.03,88.59,154.2z"/>
<path class="st12" d="M115.14,41.26c-1.53-0.37-3.3-0.81-3.28-2.87c0.01-1.23,1.1-2.03,2.46-1.82c1.66,0.25,3.42,0.64,3.38,2.8
	C117.68,40.73,116.54,41.21,115.14,41.26z"/>
<path class="st12" d="M140.8,43.09c1.31,0.44,3.17,0.51,3.36,2.33c0.17,1.62-1.17,2.27-2.67,2.2c-1.58-0.07-3.17-0.59-3.39-2.33
	C137.87,43.63,139.19,43.07,140.8,43.09z"/>
<path class="st12" d="M142.36,52.91c-0.18,1.64-1.06,2.46-2.3,2.35c-1.75-0.15-3.81-0.33-3.98-2.71c-0.11-1.51,1.14-1.77,2.38-1.7
	C140.15,50.95,141.58,51.51,142.36,52.91z"/>
<path class="st12" d="M113.02,48.67c-1.24-0.35-3.06-0.4-3.18-2.29c-0.1-1.6,1.17-2.34,2.69-2.13c1.68,0.23,3.44,0.74,3.29,2.92
	C115.71,48.66,114.45,48.83,113.02,48.67z"/>
<path class="st12" d="M110.42,51.95c1.39,0.55,3.46,0.46,3.55,2.69c0.06,1.47-1.21,2.01-2.43,1.81c-1.56-0.26-3.58-0.38-3.66-2.58
	C107.83,52.52,109.02,51.97,110.42,51.95z"/>
<path class="st12" d="M136.94,58.74c1.47,0.23,3.22,0.43,3.33,2.24c0.11,1.75-1.5,1.89-2.84,1.81c-1.53-0.1-3.17-0.56-3.31-2.29
	C133.97,58.63,135.63,58.76,136.94,58.74z"/>
<path class="st0" d="M93.43,135.86c0.15-7.21,5.32-12.24,11.53-12.08c6.21,0.17,11.31,5.47,11.18,11.63
	c-0.13,6.09-5.63,11.32-11.86,10.85C97.49,145.75,93.98,141.71,93.43,135.86z"/>
<path class="st0" d="M88.59,154.2c7.55,1.83,13.97,3.38,20.38,4.96c1.12,0.28,2.4,0.54,1.83,2.23c-0.51,1.52-1.59,0.71-2.45,0.5
	c-6.41-1.57-12.81-3.15-19.2-4.78c-1-0.26-2.62-0.24-1.97-2.05C87.65,153.77,88.76,154.24,88.59,154.2z"/>
</svg>
