<?xml version="1.0" encoding="utf-8"?>
<!-- Generator: Adobe Illustrator 24.3.0, SVG Export Plug-In . SVG Version: 6.00 Build 0)  -->
<svg version="1.1" id="Calque_1" xmlns="http://www.w3.org/2000/svg" xmlns:xlink="http://www.w3.org/1999/xlink" x="0px" y="0px"
	 viewBox="0 0 216 216" style="enable-background:new 0 0 216 216;" xml:space="preserve">
<style type="text/css">
	.st0{fill:#46767D;}
	.st1{fill:#7CCBC8;}
	.st2{fill:#9DAC3C;}
	.st3{fill:#FBB041;}
	.st4{fill:#DD654A;}
	.st5{fill:#AE8782;}
	.st6{fill:#535765;}
	.st7{fill:#DD654B;}
	.st8{fill:#FDFDFC;}
	.st9{fill:#FCFCFA;}
	.st10{fill:#FBF8F7;}
	.st11{fill:#FAFBFB;}
	.st12{fill:#EFF2F3;}
	.st13{fill:#B38D88;}
</style>
<rect class="st4" width="216" height="216"/>
<path class="st8" d="M122.33,115.03c-0.96,0.58-1.78,0.9-2.39,1.46c-9.82,8.97-19.67,17.92-29.4,27c-3.57,3.34-6.36,2.97-9.76-0.46
	c-14.33-14.44-14.96-10.62-0.25-25.98c6.1-6.37,12.26-12.69,18.17-19.23c2.26-2.51,3.66-3,6.21-0.26
	c4.64,4.99,9.71,9.57,14.58,14.35C120.31,112.68,121.02,113.56,122.33,115.03z"/>
<path class="st9" d="M162.06,82.79c-0.11,1.93-0.06,3.11-0.25,4.26c-0.79,4.83-1.83,10.73-5.97,12.55
	c-3.23,1.42-5.99-4.21-8.75-6.87c-9.56-9.23-18.81-18.78-28.38-28c-2.79-2.69-2.35-3.74,0.83-5.49c9.4-5.17,18.87-5.25,28.07-0.19
	C157.06,64.26,161.76,72.71,162.06,82.79z"/>
<path class="st9" d="M134.2,110.83c-3.89,0.09-7.38-0.48-10.32-3.68c-4.15-4.52-8.77-8.61-13.2-12.88
	c-6.81-6.57-6.59-20.7,0.2-27.39c1.84-1.81,2.48-0.44,3.49,0.54c11.8,11.5,23.55,23.04,35.41,34.47c1.99,1.92,2,3-0.44,4.43
	C144.64,109.08,139.66,110.67,134.2,110.83z"/>
<path class="st10" d="M64.02,149.92c0.27-0.83,0.62-3.03,1.66-4.83c0.91-1.58,1.5-5.28,3.99-3.57c2.04,1.41,6.17,2.69,4.47,7.17
	c-0.95,2.5-1.36,5.37,1.58,7.11c2.99,1.77,5.8,0.9,8.27-1.18c5.92-4.96,11.85-9.6,20.31-9.25c9.52,0.39,17.26,6.51,19.2,15.8
	c0.41,1.97,1,4.4-1.75,4.87c-2.61,0.45-5.63,1.3-7.29-2.31c-4.84-10.57-11.87-12.1-21.04-4.77c-3.74,2.99-7.27,6.28-12.44,6.88
	C71.73,166.92,64.04,160.41,64.02,149.92z"/>
</svg>
