<?xml version="1.0" encoding="utf-8"?>
<!-- Generator: Adobe Illustrator 24.3.0, SVG Export Plug-In . SVG Version: 6.00 Build 0)  -->
<svg version="1.1" id="Calque_1" xmlns="http://www.w3.org/2000/svg" xmlns:xlink="http://www.w3.org/1999/xlink" x="0px" y="0px"
	 viewBox="0 0 216 216" style="enable-background:new 0 0 216 216;" xml:space="preserve">
<style type="text/css">
	.st0{fill:#46767D;}
	.st1{fill:#7CCBC8;}
	.st2{fill:#9DAC3C;}
	.st3{fill:#FBB041;}
	.st4{fill:#DD654A;}
	.st5{fill:#AE8782;}
	.st6{fill:#535765;}
	.st7{fill:#DD654B;}
	.st8{fill:#FDFDFC;}
	.st9{fill:#FCFCFA;}
	.st10{fill:#FBF8F7;}
	.st11{fill:#FAFBFB;}
	.st12{fill:#EFF2F3;}
	.st13{fill:#B38D88;}
</style>
<rect class="st0" width="216" height="216"/>
<path class="st12" d="M111.87,144.25c-19.81,0-39.63,0.02-59.44-0.03c-1.38,0-3.39,0.77-3.94-1.03c-0.28-0.92,0.93-2.29,1.49-3.45
	c0.14-0.3,0.37-0.55,0.56-0.82c14.1-20.34,14.1-20.35,38.74-20.37c20.82-0.02,41.64,0.11,62.46-0.07c4.67-0.04,7.89,1.57,10.5,5.34
	c3.78,5.47,7.87,10.74,11.73,16.15c0.72,1.01,1,2.33,1.48,3.5c-1.22,0.27-2.43,0.78-3.65,0.78c-19.98,0.05-39.96,0.04-59.94,0.04
	C111.87,144.27,111.87,144.26,111.87,144.25z M75.41,126.22c0.74-1.29,2.77-3.05-0.17-3.67c-2.72-0.57-6.3-1.32-6.56,3.44
	c-0.45,0.59-0.9,1.18-1.35,1.77C70.13,127.81,73.36,130.1,75.41,126.22z M142.62,128.13c0.49-0.53,2.49,0.61,1.67-1.12
	c-0.75-1.6-0.04-4.42-2.98-4.52c-1.63-0.06-4.27-0.37-4.7,0.41c-1.1,1.98-0.2,4.3,1.07,6.25c-0.5,2.98,1.36,3.21,3.54,3.02
	c1.59-0.14,4.34,0.06,4.55-0.56C146.55,129.3,143.27,129.76,142.62,128.13z M111.75,136.41c10.98,0,21.96,0.03,32.94-0.05
	c1.09-0.01,3.1,0.84,3.07-1.28c-0.02-1.71-1.77-1.68-3.11-1.68c-21.8-0.01-43.6-0.01-65.39,0.01c-1.45,0-3.47-0.15-3.25,1.98
	c0.2,1.89,2.17,0.98,3.3,0.99C90.12,136.45,100.94,136.42,111.75,136.41z M155.1,132.05c0.82-0.49,3.82,0.73,3.08-0.91
	c-1.48-3.26-2.42-7.73-7.12-8.29c-1.9-0.23-2.88,0.84-2.46,3.09C149.25,129.52,149.79,132.96,155.1,132.05z M121.18,128.39
	c-0.72-1.55,2.41-4.9-2.89-4.64c-3.63,0.17-4.33,1.6-4.38,4.36c-0.05,2.66,0.36,4.85,4.1,4.19
	C120.4,131.87,123.02,132.26,121.18,128.39z M128.33,122.37c-1.92-0.02-3.54-0.2-3.38,2.16c0.21,3.13,1.88,4.45,4.9,3.77
	c1.25-0.28,3.79,1.24,3.3-2.01C132.7,123.26,130.89,122.06,128.33,122.37z M87.07,122.89c-5.72-1.04-6.9,2.17-7.96,4.36
	c-0.66,1.35,1.91,0.86,3.05,1.1c3.44,0.71,4.88-1.66,5.57-4.22C88.28,122.09,86.19,122.71,87.07,122.89z M96.5,127.27
	c1.38,0.79,2.16,0.38,2.3-1.81c0.15-2.47-0.87-3.25-3.12-3.11c-1.75,0.1-3.95-0.41-3.96,2.33C91.72,127.74,94.22,127.03,96.5,127.27
	z M106.69,123.23c-2.23-0.02-4.58-0.6-4.47,2.88c0.04,1.18,0.24,2.48,1.28,1.52c1.91-1.77,5.75,1.87,6.38-2.5
	C110.35,121.76,107.63,123.88,106.69,123.23z M157.38,136.42c0.97-0.73,3.67,1.17,3.19-1.35c-0.47-2.5-3.28-1.61-5.17-1.61
	c-1.14,0-3.43-0.71-3.12,1.14C152.73,137.28,155.45,136.21,157.38,136.42z M130.31,132.35c0.97-1.05,3.61,1.16,3.77-1.22
	c0.14-2.14-2.37-1.73-3.89-1.61c-1.45,0.12-3.99-0.99-4.09,1.19C125.99,133.06,128.6,131.84,130.31,132.35z M69.3,132.27
	c1.29-0.67,3.94,0.82,4.08-1.39c0.17-2.54-2.48-1.23-3.86-1.39c-1.53-0.18-3.99-0.49-3.96,1.68
	C65.6,133.13,67.94,131.69,69.3,132.27z M81.32,132.21c1.51-0.37,4.06,0.75,4.21-1.34c0.18-2.59-2.43-1.21-3.77-1.35
	c-1.46-0.14-3.9-0.77-3.92,1.53C77.83,133.29,80.19,131.59,81.32,132.21z M93.55,132.27c1.43-0.48,3.99,0.92,4.05-1.48
	c0.05-1.99-2.34-1.21-3.67-1.21c-1.49,0.01-3.99-0.79-4,1.52C89.93,133.23,92.34,131.7,93.55,132.27z M105.93,132.21
	c1.31-0.41,3.64,0.82,3.65-1.23c0.01-2.47-2.48-1.32-3.89-1.42c-1.34-0.1-3.67-0.58-3.62,1.3
	C102.13,133.34,104.65,131.6,105.93,132.21z M66.96,136.47c1.49-0.4,4.18,0.7,4.28-1.12c0.12-2.28-2.49-1.08-3.85-1.13
	c-1.46-0.06-4-0.9-4.09,1.25C63.22,137.13,65.67,136.1,66.96,136.47z"/>
<path class="st12" d="M111.83,115.95c-13.16,0-26.32-0.17-39.47,0.08c-4.94,0.1-7.02-1.66-7-6.58c0.08-17.8,0.07-35.59-0.01-53.39
	c-0.02-4.89,2.09-6.72,6.99-6.68c26.47,0.17,52.95,0.2,79.42,0.11c4.88-0.02,6.85,1.69,6.79,6.73c-0.2,17.65-0.18,35.3-0.02,52.95
	c0.05,5.27-2.15,6.96-7.23,6.87C138.15,115.8,124.99,115.95,111.83,115.95z M112.24,109.34c12.14,0,24.28-0.1,36.42,0.07
	c3.23,0.04,4.28-0.88,4.25-4.2c-0.17-15.13-0.14-30.26-0.02-45.39c0.02-2.68-0.47-3.82-3.48-3.81c-24.95,0.11-49.91,0.09-74.86,0.03
	c-2.49-0.01-3.49,0.63-3.47,3.34c0.1,15.28,0.08,30.55-0.05,45.83c-0.03,3.21,0.99,4.27,4.3,4.22
	C87.62,109.24,99.93,109.36,112.24,109.34z"/>
<path class="st11" d="M112.24,147.15c19.64,0.01,39.28-0.02,58.91,0.06c1.79,0.01,4.65-1.34,4.55,2.57c-0.08,3.1-1.04,5.23-4.5,5.28
	c-3.99,0.05-7.99,0.02-11.98,0.02c-34.45,0-68.9,0-103.35,0c-1.16,0-2.33,0.03-3.49-0.04c-3.49-0.22-4.3-2.58-4.36-5.53
	c-0.06-3.53,2.66-2.3,4.31-2.31C72.3,147.11,92.27,147.14,112.24,147.15z"/>
<path class="st0" d="M111.75,136.41c-10.81,0.01-21.63,0.04-32.44-0.04c-1.13-0.01-3.1,0.91-3.3-0.99c-0.23-2.13,1.8-1.98,3.25-1.98
	c21.8-0.02,43.6-0.02,65.39-0.01c1.34,0,3.09-0.03,3.11,1.68c0.03,2.12-1.98,1.27-3.07,1.28
	C133.71,136.44,122.73,136.41,111.75,136.41z"/>
<path class="st0" d="M155.1,132.05c-5.31,0.91-5.85-2.54-6.51-6.12c-0.41-2.24,0.57-3.31,2.46-3.09c4.7,0.56,5.64,5.03,7.12,8.29
	C158.92,132.78,155.92,131.56,155.1,132.05z"/>
<path class="st0" d="M121.18,128.39c1.84,3.87-0.78,3.48-3.17,3.9c-3.74,0.67-4.15-1.53-4.1-4.19c0.06-2.76,0.75-4.19,4.38-4.36
	C123.58,123.49,120.46,126.84,121.18,128.39z"/>
<path class="st0" d="M137.69,129.14c1.64-0.34,3.29-0.68,4.93-1.02c0.64,1.64,3.92,1.17,3.16,3.47c-0.21,0.62-2.96,0.42-4.55,0.56
	C139.05,132.35,137.2,132.12,137.69,129.14z"/>
<path class="st0" d="M130.31,132.35c-1.71-0.51-4.32,0.71-4.21-1.63c0.1-2.18,2.64-1.07,4.09-1.19c1.52-0.13,4.03-0.53,3.89,1.61
	C133.92,133.51,131.28,131.29,130.31,132.35z"/>
<path class="st0" d="M69.3,132.27c-1.36-0.58-3.7,0.85-3.73-1.1c-0.04-2.17,2.43-1.86,3.96-1.68c1.38,0.16,4.03-1.15,3.86,1.39
	C73.24,133.1,70.59,131.61,69.3,132.27z"/>
<path class="st0" d="M81.32,132.21c-1.12-0.62-3.49,1.08-3.48-1.16c0.01-2.3,2.46-1.67,3.92-1.53c1.34,0.13,3.95-1.24,3.77,1.35
	C85.38,132.96,82.83,131.84,81.32,132.21z"/>
<path class="st0" d="M93.55,132.27c-1.21-0.56-3.62,0.96-3.62-1.17c0-2.31,2.51-1.51,4-1.52c1.33-0.01,3.72-0.78,3.67,1.21
	C97.54,133.19,94.98,131.79,93.55,132.27z"/>
<path class="st0" d="M105.93,132.21c-1.27-0.6-3.79,1.14-3.86-1.36c-0.05-1.88,2.29-1.39,3.62-1.3c1.41,0.1,3.9-1.05,3.89,1.42
	C109.57,133.02,107.24,131.8,105.93,132.21z"/>
<path class="st0" d="M66.95,136.48c-1.28-0.37-3.72,0.65-3.65-1c0.09-2.15,2.63-1.31,4.09-1.25c1.36,0.05,3.97-1.15,3.85,1.13
	C71.14,137.18,68.45,136.08,66.95,136.48z"/>
<path class="st0" d="M68.68,126c2.24,0.08,4.49,0.15,6.73,0.23c-2.05,3.88-5.28,1.58-8.08,1.55C67.78,127.18,68.23,126.59,68.68,126
	z"/>
<path class="st12" d="M121.81,76.38c-0.13,0.35-1.26,0.96-1.37,1.05c-7.74,4.08-2.09,4.82,5.5,12c0.95,2.43-0.03,1.8-2.25,4.25
	c-2.76,3.06-3.63-0.15-4.94-1.25c-2.15-1.81-4.07-3.91-6.05-5.92c-1.19-1.21-2.11-1.58-2.81,0.44c-0.43,1.23-1.46,2.4-1.98,3.6
	c-0.73-1.23-1.16-2.4-1.73-3.7c-2.31-5.32-4.56-10.68-6.76-16.05c-0.34-0.84-1.37-2.76-1.51-3.68c0.93,0.1,2.99,0.94,3.83,1.25
	c5.14,1.88,10.26,3.83,15.37,5.81C118.02,74.52,121,75.93,121.81,76.38z"/>
</svg>
