<?xml version="1.0" encoding="utf-8"?>
<!-- Generator: Adobe Illustrator 24.3.0, SVG Export Plug-In . SVG Version: 6.00 Build 0)  -->
<svg version="1.1" id="Calque_1" xmlns="http://www.w3.org/2000/svg" xmlns:xlink="http://www.w3.org/1999/xlink" x="0px" y="0px"
	 viewBox="0 0 216 216" style="enable-background:new 0 0 216 216;" xml:space="preserve">
<style type="text/css">
	.st0{fill:#46767D;}
	.st1{fill:#7CCBC8;}
	.st2{fill:#9DAC3C;}
	.st3{fill:#FBB041;}
	.st4{fill:#DD654A;}
	.st5{fill:#AE8782;}
	.st6{fill:#535765;}
	.st7{fill:#DD654B;}
	.st8{fill:#FDFDFC;}
	.st9{fill:#FCFCFA;}
	.st10{fill:#FBF8F7;}
	.st11{fill:#FAFBFB;}
	.st12{fill:#EFF2F3;}
	.st13{fill:#B38D88;}
</style>
<g>
	<rect class="st5" width="216" height="216"/>
	<path class="st8" d="M132.72,56.48c4.17-0.43,9.54-1.23,11.61,2.07c1.26,2.01-4.21,4.97-6.54,7.61c-0.98,1.12-2.06,2.19-3.21,3.14
		c-5.77,4.76-6.42,9.21-0.57,14.85c5.54,5.34,9.93,5.72,14.97-0.26c2.56-3.04,5.64-5.65,8.55-8.38c0.77-0.72,1.81-1.15,2.72-1.72
		c0.45,1.04,1.07,2.04,1.31,3.12c3.1,14.04-6.54,28.84-20.26,31.19c-15.54,2.66-30.09-6.93-32.04-21.12
		C107.07,71.07,117.08,58.06,132.72,56.48z"/>
	<path class="st10" d="M138.78,160.7c-4.73,0.37-8.84-0.93-12.28-4.32c-12.78-12.63-25.57-25.25-38.44-37.79
		c-1.77-1.72-1.74-2.73,0.03-4.4c5.57-5.24,11-10.64,16.46-16c1.43-1.4,2.5-2.17,4.43-0.23c13.02,13.09,26.26,25.97,39.27,39.08
		c4.02,4.05,4.47,9.34,2.49,14.43C148.71,156.73,144.76,160.2,138.78,160.7z M103.37,115.45c-2.14,1.97-3.04,2.48-3.46,3.26
		c-0.8,1.49,0.41,2.46,1.34,3.38c9.88,9.81,19.78,19.59,29.64,29.42c1.46,1.45,3,2.45,4.68,0.72c1.89-1.94,0.03-3.32-1.21-4.55
		c-9.64-9.57-19.35-19.09-28.96-28.69C104.48,118.07,104.04,116.65,103.37,115.45z M109.93,108.93c-0.81,0.77-1.81,1.29-2.09,2.07
		c-0.57,1.59,0.46,2.86,1.54,3.94c9.69,9.56,19.4,19.09,29.08,28.66c1.4,1.39,3,2.7,4.71,1.17c1.89-1.69,0.34-3.26-1-4.6
		c-9.75-9.73-19.48-19.47-29.26-29.17C112.12,110.23,111.06,109.71,109.93,108.93z"/>
	<path class="st9" d="M54.94,148.66c-0.7-5.58,1.87-9.54,5.52-12.94c5.46-5.09,11.1-10.01,16.5-15.16c2.13-2.03,3.62-2.26,5.71,0.06
		c3,3.32,5.94,6.89,9.57,9.41c7.44,5.18,5.79,9.28-0.2,14.3c-4.42,3.7-7.87,8.55-12.09,12.52c-4.34,4.1-9.51,6.1-15.51,3.68
		C58.98,158.34,55.18,154.74,54.94,148.66z M70.13,152.56c2.98-0.57,4.94-2.51,4.54-5.81c-0.42-3.5-3-5.32-6.37-4.83
		c-3.17,0.46-4.83,2.75-4.37,6.13C64.4,151.5,66.48,152.89,70.13,152.56z"/>
	<path class="st9" d="M58.35,63.75c3.39,2.2,6.36,4,9.19,5.99c6.14,4.33,13.51,6.85,15.41,16.15c0.87,4.27,6.5,7.65,10.19,11.21
		c1.9,1.84,2.86,3.37,0.1,4.96c-2.08,1.2-2.84,6.2-6.87,2.18c-5.39-5.37-10.8-10.18-17.97-13.97c-6.62-3.5-10.47-12.85-14.6-20.15
		C52.21,67.31,57.16,66.42,58.35,63.75z"/>
	<path class="st13" d="M103.37,115.45c0.67,1.21,1.11,2.62,2.03,3.55c9.61,9.6,19.32,19.11,28.96,28.69
		c1.24,1.23,3.1,2.61,1.21,4.55c-1.68,1.72-3.22,0.73-4.68-0.72c-9.86-9.83-19.76-19.61-29.64-29.42c-0.93-0.93-2.14-1.89-1.34-3.38
		C100.32,117.93,101.23,117.41,103.37,115.45z"/>
	<path class="st13" d="M109.93,108.93c1.13,0.77,2.19,1.29,2.98,2.08c9.78,9.7,19.51,19.44,29.26,29.17c1.34,1.33,2.89,2.91,1,4.6
		c-1.71,1.53-3.31,0.22-4.71-1.17c-9.67-9.57-19.39-19.1-29.08-28.66c-1.09-1.07-2.11-2.34-1.54-3.94
		C108.12,110.22,109.12,109.7,109.93,108.93z"/>
	<path class="st13" d="M70.13,152.56c-3.65,0.34-5.73-1.06-6.2-4.5c-0.46-3.38,1.2-5.67,4.37-6.13c3.38-0.49,5.95,1.33,6.37,4.83
		C75.07,150.04,73.11,151.98,70.13,152.56z"/>
</g>
</svg>
