<?xml version="1.0" encoding="utf-8"?>
<!-- Generator: Adobe Illustrator 24.3.0, SVG Export Plug-In . SVG Version: 6.00 Build 0)  -->
<svg version="1.1" id="Calque_1" xmlns="http://www.w3.org/2000/svg" xmlns:xlink="http://www.w3.org/1999/xlink" x="0px" y="0px"
	 viewBox="0 0 216 216" style="enable-background:new 0 0 216 216;" xml:space="preserve">
<style type="text/css">
	.st0{fill:#46767D;}
	.st1{fill:#7CCBC8;}
	.st2{fill:#9DAC3C;}
	.st3{fill:#FBB041;}
	.st4{fill:#DD654A;}
	.st5{fill:#AE8782;}
	.st6{fill:#535765;}
	.st7{fill:#DD654B;}
	.st8{fill:#FDFDFC;}
	.st9{fill:#FCFCFA;}
	.st10{fill:#FBF8F7;}
	.st11{fill:#FAFBFB;}
	.st12{fill:#EFF2F3;}
	.st13{fill:#B38D88;}
</style>
<rect y="0" class="st3" width="216" height="216"/>
<path class="st10" d="M93.8,136.53c14.91,0.52,29.38,1.06,43.85,1.49c4.13,0.12,6.74,1.38,6.22,6.17c-0.24,2.2,0.58,3.9,2.47,5.56
	c4.66,4.1,4.85,9.18,0.75,13.62c-3.99,4.32-9.08,4.36-13.32,0.3c-4.47-4.29-4.02-9.17,0.04-13.72c1.05-1.17,3.34-1.94,2.23-3.84
	c-0.47-0.81-2.63-0.82-4.03-0.87c-11.63-0.41-23.27-0.8-34.91-1.04c-1.29-0.03-3.26-0.76-3.96,1.08c-0.62,1.64,1.19,2.13,2.07,3.02
	c4.59,4.67,4.59,9.71,0.03,14.02c-4.24,4.01-9.38,3.83-13.27-0.64c-4-4.6-3.66-9.78,1.21-13.56c2.65-2.06,2.38-3.91,1.68-6.37
	C78.46,119.38,72,97.01,65.7,74.6c-0.8-2.85-2.08-3.54-4.91-3.4c-4.3,0.21-8.64-0.16-12.96-0.36c-2.35-0.11-3.8-1.32-3.63-3.79
	c0.17-2.45,1.7-3.35,4.09-3.3c6.48,0.13,12.96,0.24,19.44,0.19c3.05-0.02,3.65,2.03,3.83,4.21c0.86,10.1,6.07,13.16,16.21,13.07
	c22.78-0.19,45.56,1.15,68.35,1.75c5.24,0.14,6.83,2.01,5.06,7.2c-4.14,12.1-8.02,24.29-11.8,36.51c-1,3.24-2.63,4.58-6.07,4.45
	c-16.45-0.6-32.9-1.12-49.35-1.4c-1.31-0.02-4.64-1.89-4.35,1.73C89.79,133.88,90.1,137.24,93.8,136.53z M102.62,95.92
	c2.73-2.2,8.28,4.09,10.15-2.95c0.54-2.04,0.49-4.24-2.68-3.83c-3.77,0.48-8.15-2.39-11.12,1.31
	C98.27,91.32,98.2,95.61,102.62,95.92z M86.97,88.27c-0.83-0.02-3.13-0.14-5.44-0.12c-1.36,0.01-3.55-0.82-3.69,1.13
	c-0.14,1.94-0.07,4.85,2.29,5.5c2.63,0.73,5.54,0.53,8.33,0.48c1.29-0.02,3.8,1.45,3.46-1.67C91.69,91.36,92.32,88.25,86.97,88.27z
	 M130.36,89.19c-2.74,2.73-8.39-3.61-10.18,3.33c-0.78,3.03,0.83,4.42,3.75,4c3.78-0.55,9.4,2.8,10.1-4.71
	C134.33,88.64,131.94,90.18,130.36,89.19z M147.93,90.49c-1.29,0.24-6.21-3.18-6.91,3.71c-0.28,2.73,0.94,3.21,2.97,3.18
	c3.57-0.04,7.87,1.46,8.61-4.46C152.92,90.43,151.98,90.02,147.93,90.49z M87.85,103.03c-0.97,0.58-4.79-2.54-5.89,1.21
	c-0.68,2.31,0.83,5.38,4.51,4.88c2.6-0.36,6.38,1.84,7.55-1.53C95.01,104.76,93.28,102.06,87.85,103.03z M108.46,103.54
	c-1.89,0.79-5.61-2.36-7.03,1.63c-0.55,1.54-0.18,5.01,3.09,4.29c2.51-0.55,6.3,2.59,7.49-2.09
	C112.57,105.19,112.06,103.29,108.46,103.54z M141.34,117.42c-2.72,0.18-6.22-1.68-7.07,3.06c-0.36,1.99-0.24,3.23,2.17,3.28
	c3.24,0.07,6.58,0.78,7.49-3.94C144.47,117.02,142.49,117.91,141.34,117.42z M89.08,122.22c1.85-2.09,5.64,2.79,7.24-1.57
	c0.46-1.26,0.34-4.43-2.33-3.92c-2.78,0.53-6.27-2.38-8.15,1.13C85.29,118.88,85.64,121.98,89.08,122.22z M140.18,110.18
	c2.94-0.34,6.8,1.41,8.04-3.36c0.51-1.95-0.65-2.57-2.12-2.24c-2.93,0.66-7.22-2.5-8.48,3.12
	C137.03,110.33,138.71,109.89,140.18,110.18z M106.8,122.78c1.51-0.75,4.74,1.75,4.98-2.4c0.12-1.99,0.05-3.91-2.6-3.52
	c-1.9,0.27-4.9-1.62-5.44,1.81C103.48,120.33,103.43,122.93,106.8,122.78z M122.77,123.33c1.11-0.07,3.9,0.62,4.36-3.11
	c0.2-1.64,0.35-3.28-1.89-3c-2.14,0.27-5.35-1.72-6.03,2.26C118.91,121.24,118.48,123.38,122.77,123.33z"/>
<path class="st3" d="M102.62,95.92c-4.42-0.3-4.35-4.6-3.65-5.47c2.97-3.7,7.35-0.83,11.12-1.31c3.17-0.41,3.23,1.79,2.68,3.83
	C110.9,100.01,105.35,93.72,102.62,95.92z"/>
<path class="st3" d="M86.97,88.27c5.34-0.01,4.72,3.1,4.96,5.32c0.33,3.12-2.18,1.64-3.46,1.67c-2.79,0.05-5.7,0.25-8.33-0.48
	c-2.36-0.65-2.43-3.56-2.29-5.5c0.14-1.95,2.33-1.12,3.69-1.13C83.84,88.13,86.15,88.24,86.97,88.27z"/>
<path class="st3" d="M130.36,89.19c1.58,0.99,3.97-0.56,3.67,2.61c-0.7,7.51-6.32,4.16-10.1,4.71c-2.92,0.43-4.54-0.96-3.75-4
	C121.97,85.58,127.63,91.92,130.36,89.19z"/>
<path class="st3" d="M147.93,90.49c4.05-0.47,4.99-0.06,4.67,2.44c-0.74,5.91-5.04,4.42-8.61,4.46c-2.03,0.02-3.25-0.45-2.97-3.18
	C141.72,87.31,146.64,90.73,147.93,90.49z"/>
<path class="st3" d="M87.85,103.03c5.43-0.98,7.15,1.72,6.17,4.56c-1.17,3.37-4.95,1.17-7.55,1.53c-3.68,0.5-5.19-2.57-4.51-4.88
	C83.06,100.5,86.88,103.62,87.85,103.03z"/>
<path class="st3" d="M108.46,103.54c3.6-0.25,4.12,1.65,3.56,3.83c-1.2,4.68-4.98,1.54-7.49,2.09c-3.27,0.72-3.64-2.75-3.09-4.29
	C102.85,101.18,106.57,104.32,108.46,103.54z"/>
<path class="st3" d="M126.59,103.88c3.6-0.25,4.12,1.65,3.56,3.83c-1.2,4.68-4.98,1.54-7.49,2.09c-3.27,0.72-3.64-2.75-3.09-4.29
	C120.99,101.52,124.7,104.66,126.59,103.88z"/>
<path class="st3" d="M141.34,117.42c1.15,0.49,3.13-0.4,2.59,2.4c-0.9,4.72-4.25,4.01-7.49,3.94c-2.41-0.05-2.53-1.29-2.17-3.28
	C135.13,115.74,138.62,117.6,141.34,117.42z"/>
<path class="st3" d="M89.08,122.22c-3.45-0.24-3.79-3.34-3.25-4.35c1.88-3.51,5.37-0.6,8.15-1.13c2.66-0.51,2.79,2.66,2.33,3.92
	C94.72,125.01,90.94,120.13,89.08,122.22z"/>
<path class="st3" d="M140.18,110.18c-1.47-0.29-3.15,0.15-2.56-2.48c1.26-5.63,5.56-2.47,8.48-3.12c1.47-0.33,2.63,0.29,2.12,2.24
	C146.98,111.59,143.12,109.84,140.18,110.18z"/>
<path class="st3" d="M106.8,122.78c-3.38,0.15-3.32-2.45-3.06-4.12c0.54-3.42,3.54-1.53,5.44-1.81c2.65-0.38,2.72,1.54,2.6,3.52
	C111.54,124.53,108.31,122.03,106.8,122.78z"/>
<path class="st3" d="M122.77,123.33c-4.29,0.05-3.86-2.1-3.56-3.85c0.68-3.98,3.89-2,6.03-2.26c2.24-0.28,2.09,1.36,1.89,3
	C126.67,123.96,123.87,123.27,122.77,123.33z"/>
</svg>
