<?xml version="1.0" encoding="utf-8"?>
<!-- Generator: Adobe Illustrator 24.3.0, SVG Export Plug-In . SVG Version: 6.00 Build 0)  -->
<svg version="1.1" id="Calque_1" xmlns="http://www.w3.org/2000/svg" xmlns:xlink="http://www.w3.org/1999/xlink" x="0px" y="0px"
	 viewBox="0 0 216 216" style="enable-background:new 0 0 216 216;" xml:space="preserve">
<style type="text/css">
	.st0{fill:#46767D;}
	.st1{fill:#7CCBC8;}
	.st2{fill:#9DAC3C;}
	.st3{fill:#FBB041;}
	.st4{fill:#DD654A;}
	.st5{fill:#AE8782;}
	.st6{fill:#535765;}
	.st7{fill:#DD654B;}
	.st8{fill:#FDFDFC;}
	.st9{fill:#FCFCFA;}
	.st10{fill:#FBF8F7;}
	.st11{fill:#FAFBFB;}
	.st12{fill:#EFF2F3;}
	.st13{fill:#B38D88;}
</style>
<rect y="0" class="st1" width="216" height="216"/>
<path class="st11" d="M76.46,173.99c-3.04,0.24-2.16-2.34-2.19-3.53c-0.36-13.75-0.44-27.51-0.84-41.25
	c-0.08-2.68,1.2-3.06,3.16-3.26c22.61-2.28,45.22-4.49,67.82-6.9c3.02-0.32,4.08,0.58,4.58,3.42c2.35,13.24,4.88,26.46,7.31,39.69
	c0.27,1.49,1.26,3.33-1.64,3.63C128.59,168.49,102.53,171.25,76.46,173.99z M122.24,156.44c-0.98-9.08-1.91-18.17-3-27.23
	c-0.09-0.75-1.12-1.87-1.82-1.95c-1.43-0.18-2.03,1.15-1.92,2.35c0.89,9.09,1.84,18.16,2.86,27.23c0.13,1.14,0.87,2.46,2.29,2.01
	C121.32,158.64,121.66,157.39,122.24,156.44z M94.68,129.77c-2.47-0.08-2.99,1.19-2.82,2.87c0.86,8.57,1.74,17.14,2.69,25.71
	c0.14,1.3,0.56,2.94,2.17,2.9c2.27-0.06,1.75-1.95,1.62-3.39c-0.77-8.41-1.53-16.82-2.4-25.21
	C95.83,131.62,95.09,130.67,94.68,129.77z M145.85,152.02c-0.88-7.65-1.89-16.54-2.96-25.43c-0.13-1.06-0.86-1.94-2.03-1.75
	c-1.79,0.3-1.71,1.76-1.57,3.12c0.91,8.58,1.82,17.15,2.76,25.72c0.12,1.13,0.2,2.63,1.74,2.59
	C145.57,156.23,145.56,154.62,145.85,152.02z M127.35,128.24c0.99,9.26,1.92,18.32,3.01,27.37c0.09,0.71,1.21,1.7,1.98,1.84
	c1.17,0.22,1.78-0.94,1.67-1.98c-0.96-9.22-1.96-18.44-3.09-27.65c-0.08-0.67-1.28-1.19-1.96-1.79
	C128.42,126.78,127.88,127.52,127.35,128.24z M86.73,159.38c-0.87-8.39-1.77-17.3-2.74-26.21c-0.13-1.2-0.8-2.35-2.23-2.22
	c-1.59,0.15-1.56,1.52-1.44,2.68c0.91,8.75,1.82,17.5,2.82,26.24c0.12,1.06,0.22,2.61,1.78,2.6
	C86.43,162.46,86.61,161.13,86.73,159.38z M103.71,130.44c0.84,8.32,1.63,16.38,2.48,24.45c0.18,1.69,1.87,1.64,2.97,2.23
	c0.05,0.03,0.64-0.58,0.62-0.86c-0.72-8.76-1.44-17.52-2.33-26.27c-0.06-0.62-1.43-1.56-2.13-1.51
	C104.73,128.53,104.22,129.78,103.71,130.44z"/>
<path class="st11" d="M69.75,127.71c0.29,13.6,0.61,27.19,0.82,40.79c0.04,2.28,1.23,5.99-1.97,6.17c-3.11,0.18-1.97-3.71-2.2-5.7
	c-1.84-15.67-3.34-31.38-5.1-47.05c-0.49-4.41,1.59-6.02,5.56-6.43c11.07-1.15,22.11-2.58,33.2-3.49c3.79-0.31,4.95-1.64,4.55-5.22
	c-1.2-10.73-2.42-21.47-3.31-32.22c-0.48-5.75-5.27-7.39-8.89-9.95c-3.99-2.82-6.49-5.98-6.3-11.04c0.05-1.44-0.22-3.12-0.96-4.31
	c-4.1-6.66-3.61-7.64,4.33-8.35c9.59-0.86,19.18-1.76,28.77-2.76c1.85-0.19,3.39,0.02,4.26,1.72c0.79,1.57,0.87,3.27-0.6,4.58
	c-1.1,0.97-1.83,2.17-1.33,3.51c2.98,7.91-1.66,12.9-6.7,17.7c-3.02,2.88-3.88,6.02-3.28,10.28c1.39,9.86,2.37,19.8,3.06,29.74
	c0.31,4.43,2.01,4.96,5.98,4.46c10.88-1.36,21.82-2.16,32.73-3.33c4.43-0.47,6.27,1.11,6.68,5.68c1.43,16.21,3.22,32.4,4.85,48.6
	c0.15,1.52,1.23,3.71-1.25,4.1c-2.73,0.42-2.49-2.23-2.8-3.83c-2.61-13.38-5.3-26.75-7.54-40.2c-0.75-4.5-2.72-5.93-6.99-5.49
	c-23.28,2.44-46.57,4.8-69.85,7.19C72.5,123.17,69.63,123.64,69.75,127.71z M101.97,65.5c5.15,0.77,6.66-0.38,12.55-6.95
	c3.25-3.63,2.39-7.71,1.13-11.2c-1.15-3.17-4.69-0.89-7.14-0.8c-3.8,0.14-7.59,0.64-11.37,1.02c-6.88,0.69-9.12,4.47-5.28,10.35
	C94.33,61.7,98.49,64.18,101.97,65.5z"/>
<path class="st1" d="M122.24,156.44c-0.58,0.94-0.92,2.2-1.58,2.41c-1.42,0.44-2.16-0.88-2.29-2.01
	c-1.03-9.07-1.98-18.15-2.86-27.23c-0.12-1.2,0.49-2.53,1.92-2.35c0.7,0.09,1.73,1.21,1.82,1.95
	C120.33,138.28,121.27,147.36,122.24,156.44z"/>
<path class="st1" d="M94.68,129.77c0.41,0.9,1.15,1.85,1.26,2.87c0.87,8.4,1.63,16.81,2.4,25.21c0.13,1.44,0.65,3.33-1.62,3.39
	c-1.61,0.04-2.03-1.6-2.17-2.9c-0.95-8.56-1.83-17.13-2.69-25.71C91.69,130.96,92.21,129.69,94.68,129.77z"/>
<path class="st1" d="M145.85,152.02c-0.29,2.6-0.27,4.21-2.05,4.26c-1.54,0.04-1.61-1.46-1.74-2.59
	c-0.94-8.57-1.85-17.15-2.76-25.72c-0.14-1.36-0.22-2.82,1.57-3.12c1.17-0.19,1.9,0.69,2.03,1.75
	C143.96,135.48,144.96,144.37,145.85,152.02z"/>
<path class="st1" d="M127.35,128.24c0.53-0.73,1.07-1.46,1.61-2.2c0.68,0.59,1.88,1.12,1.96,1.79c1.13,9.2,2.13,18.42,3.09,27.65
	c0.11,1.04-0.51,2.2-1.67,1.98c-0.77-0.14-1.89-1.13-1.98-1.84C129.27,146.57,128.34,137.5,127.35,128.24z"/>
<path class="st1" d="M86.73,159.38c-0.12,1.75-0.3,3.08-1.81,3.08c-1.56,0.01-1.66-1.54-1.78-2.6c-1-8.74-1.91-17.49-2.82-26.24
	c-0.12-1.16-0.15-2.53,1.44-2.68c1.42-0.13,2.09,1.02,2.23,2.22C84.96,142.08,85.86,150.99,86.73,159.38z"/>
<path class="st1" d="M103.71,130.44c0.51-0.66,1.02-1.91,1.61-1.96c0.7-0.05,2.06,0.89,2.13,1.51c0.89,8.74,1.61,17.51,2.33,26.27
	c0.02,0.28-0.57,0.88-0.62,0.86c-1.1-0.59-2.8-0.54-2.97-2.23C105.34,146.82,104.55,138.76,103.71,130.44z"/>
<path class="st1" d="M101.97,65.5c-3.48-1.32-7.65-3.8-10.11-7.57c-3.84-5.88-1.6-9.66,5.28-10.35c3.79-0.38,7.58-0.87,11.37-1.02
	c2.45-0.09,5.99-2.37,7.14,0.8c1.27,3.49,2.13,7.57-1.13,11.2C108.63,65.12,107.12,66.27,101.97,65.5z"/>
</svg>
