<?xml version="1.0" encoding="utf-8"?>
<!-- Generator: Adobe Illustrator 24.3.0, SVG Export Plug-In . SVG Version: 6.00 Build 0)  -->
<svg version="1.1" id="Calque_1" xmlns="http://www.w3.org/2000/svg" xmlns:xlink="http://www.w3.org/1999/xlink" x="0px" y="0px"
	 viewBox="0 0 216 216" style="enable-background:new 0 0 216 216;" xml:space="preserve">
<style type="text/css">
	.st0{fill:#46767D;}
	.st1{fill:#7CCBC8;}
	.st2{fill:#9DAC3C;}
	.st3{fill:#FBB041;}
	.st4{fill:#DD654A;}
	.st5{fill:#AE8782;}
	.st6{fill:#535765;}
	.st7{fill:#DD654B;}
	.st8{fill:#FDFDFC;}
	.st9{fill:#FCFCFA;}
	.st10{fill:#FBF8F7;}
	.st11{fill:#FAFBFB;}
	.st12{fill:#EFF2F3;}
	.st13{fill:#B38D88;}
</style>
<rect x="0" y="0" class="st5" width="216" height="216"/>
<g>
	<path class="st9" d="M129.01,57.94c-0.4,3.27-1.89,6.28-5.67,7.6c-1.52,0.53-2.73,1.33-2.93,3.03c-0.98,8.3-0.53,16.58,0.6,24.83
		c0.11,0.78,1.03,1.91,1.76,2.07c8.9,2.04,15.45,8.21,22.9,12.79c1.72,1.06,3.26,2.2,5.3,0.25c3.15-3.02,6.2-1.58,8.75,0.98
		c2.78,2.79,3.51,6.14,0.89,9.41c-6.96,8.7-14.01,17.32-21.11,25.9c-3.13,3.78-7.8,4.26-12.2,4.95c-7.54,1.17-15.11,2.41-22.71,2.94
		c-8.55,0.6-15.32,3.45-19.01,11.67c-2.01,4.48-4.3,3.7-7.34,0.74c-6.79-6.61-13.79-13.02-20.82-19.37c-2-1.81-2.41-2.88-0.23-5.02
		c7.71-7.58,15.19-15.39,22.73-23.13c2.41-2.48,5.15-3.94,8.72-4.26c6.73-0.61,9.87-7.03,15.16-9.88
		c8.94-4.83,12.25-12.07,11.16-21.85c-0.85-7.69,3.54-15.45-1.44-23.31c-2.34-3.69,5.97-15.5,10.49-16.76
		c1.63-0.45,2,0.42,2.55,1.53C128.82,47.63,130.11,52.35,129.01,57.94z M123.19,102.53c-1.69-0.1-3.05-0.42-4.33-0.23
		c-5.9,0.86-10.2,4.36-13.92,8.74c3.26,1.71,6.64,0.19,9.92,0.18c5.36-0.02,6.99,2.77,7.27,7.36c0.29,4.76-2.07,7.09-6.68,7.43
		c-2.32,0.17-4.63,0.37-6.95,0.56c-1.79,0.14-4.11-0.13-3.91,2.57c0.21,2.86,2.54,2.46,4.57,2.31c6.62-0.49,13.24-1.02,19.87-1.42
		c8.49-0.51,10.23-8.56,14.93-13.29c0.22-0.22-0.27-1.67-0.79-2.02C136.63,110.25,130.89,104.44,123.19,102.53z"/>
	<path class="st9" d="M106.31,78.13c0.34,1.72,3.18,2.87,1.87,4.7c-1.44,2.02-4.06,1.88-6.43,1.49
		c-7.63-1.27-15.1-17.64-11.01-24.22c0.32-0.52,0.92-0.96,1.49-1.2c8.25-3.47,22.07,6.69,21.18,15.53
		c-0.44,4.36-1.55,7.35-6.23,3.05c-0.3-0.36-0.6-0.71-0.9-1.07c-0.3-0.37-0.6-0.75-0.9-1.13c-0.56-0.17-1.11-0.33-1.67-0.5
		c0.34,0.33,0.69,0.66,1.03,1c0.25,0.39,0.51,0.79,0.76,1.18C105.78,77.35,106.05,77.74,106.31,78.13z"/>
	<path class="st10" d="M139.17,77.46c-2.05,5.22-3.14,11.6-10.36,10.88c-4.76-0.47-7.67-4.33-7.11-9.48
		c0.61-5.6,8.48-10.38,14.7-9.07C141.56,70.88,138.29,74.88,139.17,77.46z"/>
	<path class="st5" d="M123.19,102.53c7.71,1.91,13.44,7.72,19.97,12.19c0.52,0.35,1.01,1.8,0.79,2.02
		c-4.7,4.73-6.44,12.79-14.93,13.29c-6.63,0.4-13.25,0.92-19.87,1.42c-2.03,0.15-4.35,0.55-4.57-2.31c-0.2-2.7,2.12-2.43,3.91-2.57
		c2.32-0.18,4.63-0.39,6.95-0.56c4.61-0.34,6.97-2.67,6.68-7.43c-0.28-4.6-1.91-7.38-7.27-7.36c-3.28,0.01-6.67,1.53-9.92-0.18
		c3.72-4.38,8.03-7.87,13.92-8.74C120.14,102.12,121.49,102.43,123.19,102.53z"/>
	<path class="st5" d="M104.75,75.78c-0.34-0.33-0.69-0.66-1.03-1c0.56,0.17,1.11,0.33,1.67,0.5
		C105.18,75.44,104.96,75.61,104.75,75.78z"/>
	<path class="st5" d="M106.31,78.13c-0.27-0.39-0.54-0.78-0.8-1.17c0.26-0.18,0.52-0.37,0.77-0.56c0.3,0.36,0.6,0.72,0.9,1.07
		C106.9,77.69,106.61,77.91,106.31,78.13z"/>
	<path class="st5" d="M105.39,75.28c0.3,0.38,0.59,0.75,0.9,1.13c-0.25,0.19-0.51,0.37-0.77,0.55c-0.25-0.39-0.51-0.79-0.76-1.18
		C104.96,75.61,105.18,75.44,105.39,75.28z"/>
</g>
</svg>
