<?xml version="1.0" encoding="utf-8"?>
<!-- Generator: Adobe Illustrator 24.3.0, SVG Export Plug-In . SVG Version: 6.00 Build 0)  -->
<svg version="1.1" id="Calque_1" xmlns="http://www.w3.org/2000/svg" xmlns:xlink="http://www.w3.org/1999/xlink" x="0px" y="0px"
	 viewBox="0 0 216 216" style="enable-background:new 0 0 216 216;" xml:space="preserve">
<style type="text/css">
	.st0{fill:#46767D;}
	.st1{fill:#7CCBC8;}
	.st2{fill:#9DAC3C;}
	.st3{fill:#FBB041;}
	.st4{fill:#DD654A;}
	.st5{fill:#AE8782;}
	.st6{fill:#535765;}
	.st7{fill:#DD654B;}
	.st8{fill:#FDFDFC;}
	.st9{fill:#FCFCFA;}
	.st10{fill:#FBF8F7;}
	.st11{fill:#FAFBFB;}
	.st12{fill:#EFF2F3;}
	.st13{fill:#B38D88;}
</style>
<rect x="0" y="0" class="st6" width="216" height="216"/>
<path class="st10" d="M126.34,127.35c0.53,9.42,0.42,20.77-1.64,31.9c-1.2,6.46-6.58,9.81-12.94,9.7
	c-12.79-0.21-25.59-0.84-38.35-1.83c-8.41-0.65-13.34-6.86-12.97-15.33c0.87-20.12,1.89-40.23,2.74-60.34
	c0.14-3.26,0.85-4.66,4.63-4.26c7.26,0.76,14.61,1.35,21.89,1.08c6.11-0.23,8.99,2.54,9.88,7.9c1.45,8.78,6.09,14.19,14.81,16.78
	C120.35,114.71,124.83,118.79,126.34,127.35z M116.82,130.92c-0.62-7.68-4.7-9.09-8.57-10.73c-7.05-2.99-14.5-4.67-16.51-14.44
	c-1.71-8.3-8.03-10.67-16.91-9.12c-2.38,0.42-1.94,1.79-2.01,3.19c-0.86,17.62-1.7,35.25-2.58,52.87c-0.17,3.46,1.29,5.45,4.79,5.63
	c11.61,0.6,23.23,1.16,34.85,1.66c2.65,0.11,5.31-0.46,5.53-3.72C116.04,146.98,116.46,137.68,116.82,130.92z"/>
<path class="st11" d="M114.08,89.08c0.63,2.92,1.2,5.86,1.92,8.77c0.58,2.32-0.02,3.96-2.38,4.68c-2.7,0.83-4-0.56-4.71-3.01
	c-1.81-6.23-4.13-12.34-5.43-18.67c-1.08-5.28-4.82-4.22-8.03-4.31c-3.7-0.1-1.88,3.02-2.31,4.79c-0.16,0.64,0.01,1.75-0.32,1.91
	c-6.13,2.92-12.44,0.23-18.68,0.45c-2.62,0.09-3.05-1.91-2.92-4.21c0.09-1.66,0.71-3.63-2.07-4.27c-10.18-2.34-5.4-10.3-5.32-15.94
	c0.08-5.49,5.04-5.15,9.13-4.96c15.11,0.71,30.22,1.45,45.33,2.11c3.7,0.16,7,0.82,8.46,4.78c1.09,2.96,3.73,1.7,5.6,1.83
	c3.15,0.22,4.91,0.83,4.76,4.6c-0.15,3.72-1.58,5.17-5.16,4.54c-2.99-0.53-5.2-0.2-6.91,3.03c-1.61,3.02-5.29,2.77-8.16,2.25
	c-5.85-1.06-6.03,1.5-4.49,5.88c0.66,1.86,0.88,3.88,1.3,5.82C113.84,89.13,113.96,89.1,114.08,89.08z"/>
<path class="st12" d="M169.53,61.73c-2.44,0.64-3.96-0.49-4.53-2.7c-0.55-2.15,0.71-3.59,2.71-4.05c2.12-0.49,3.99,0.05,4.77,2.43
	C173.38,60.13,171.29,60.83,169.53,61.73z"/>
<path class="st12" d="M156.59,59.95c2.24-0.25,4.17,0.32,4.77,2.61c0.53,2.01-0.56,3.71-2.53,4.25c-2.45,0.68-4.42-0.73-5.08-2.87
	C153.17,62.01,154.63,60.55,156.59,59.95z"/>
<path class="st12" d="M169.01,73.08c-1.97,0.35-3.64-0.46-4.41-2.6c-0.89-2.45,0.66-3.87,2.69-4.37c2.01-0.5,4.08,0.1,4.74,2.42
	C172.67,70.82,171.47,72.28,169.01,73.08z"/>
<path class="st12" d="M171.51,79.59c0.36,3.12-0.99,4.5-3.18,4.72c-2.13,0.22-4.08-0.88-4.42-3.07c-0.34-2.21,1.18-3.81,3.38-4.05
	C169.41,76.96,171.08,77.95,171.51,79.59z"/>
<path class="st12" d="M156.31,71.16c2.32-0.45,4.03,0.55,4.57,2.68c0.59,2.32-0.95,3.73-3.1,4.21c-2.23,0.5-3.95-0.39-4.46-2.7
	C152.79,72.99,153.98,71.61,156.31,71.16z"/>
<path class="st12" d="M150.06,68.59c-0.06,2.29-1.62,3.27-3.45,3.5c-2.29,0.29-3.7-0.94-3.99-3.33c-0.32-2.61,1.26-3.64,3.44-3.81
	C148.53,64.76,149.24,66.81,150.06,68.59z"/>
<path class="st6" d="M116.82,130.92c-0.36,6.76-0.78,16.06-1.42,25.35c-0.22,3.26-2.88,3.83-5.53,3.72
	c-11.62-0.5-23.23-1.07-34.85-1.66c-3.5-0.18-4.96-2.17-4.79-5.63c0.88-17.62,1.72-35.25,2.58-52.87c0.07-1.4-0.37-2.78,2.01-3.19
	c8.88-1.55,15.2,0.82,16.91,9.12c2.01,9.77,9.46,11.45,16.51,14.44C112.12,121.83,116.2,123.24,116.82,130.92z M75.4,132.37
	c0.09,0.01-1.18,0.13-1.22,2.04c-0.14,6.59-1.95,13.8,0.2,19.53c1.28,3.41,9.11,1.18,13.98,1.73c1.65,0.19,3.3,0.33,4.95,0.41
	c19.44,0.95,19.44,0.94,19.65-18.7c0-0.16,0.03-0.33,0.07-0.49c0.39-1.9-0.36-2.7-2.32-2.79C99.45,133.58,88.19,133,75.4,132.37z"/>
<path class="st11" d="M75.4,132.37c12.79,0.63,24.04,1.21,35.3,1.72c1.97,0.09,2.71,0.89,2.32,2.79c-0.03,0.16-0.07,0.33-0.07,0.49
	c-0.21,19.65-0.21,19.65-19.65,18.7c-1.65-0.08-3.31-0.23-4.95-0.41c-4.86-0.55-12.7,1.68-13.98-1.73
	c-2.15-5.73-0.34-12.94-0.2-19.53C74.22,132.49,75.49,132.38,75.4,132.37z"/>
</svg>
