<?xml version="1.0" encoding="utf-8"?>
<!-- Generator: Adobe Illustrator 24.3.0, SVG Export Plug-In . SVG Version: 6.00 Build 0)  -->
<svg version="1.1" id="Calque_1" xmlns="http://www.w3.org/2000/svg" xmlns:xlink="http://www.w3.org/1999/xlink" x="0px" y="0px"
	 viewBox="0 0 216 216" style="enable-background:new 0 0 216 216;" xml:space="preserve">
<style type="text/css">
	.st0{fill:#46767D;}
	.st1{fill:#7CCBC8;}
	.st2{fill:#9DAC3C;}
	.st3{fill:#FBB041;}
	.st4{fill:#DD654A;}
	.st5{fill:#AE8782;}
	.st6{fill:#535765;}
	.st7{fill:#DD654B;}
	.st8{fill:#FDFDFC;}
	.st9{fill:#FCFCFA;}
	.st10{fill:#FBF8F7;}
	.st11{fill:#FAFBFB;}
	.st12{fill:#EFF2F3;}
	.st13{fill:#B38D88;}
</style>
<rect x="0" y="-1.19" class="st0" width="216" height="216"/>
<path class="st0" d="M24.64,29.83c6.96-8.63,16.57-10.38,26.89-10.45c39.75-0.26,79.5-0.61,119.25-0.82
	c16.29-0.09,26.89,10.31,27.1,26.74c0.52,41.91,0.94,83.82,1.25,125.73c0.11,15.16-12.08,25.34-29.76,25.45
	c-39.12,0.23-78.24,0.47-117.36,0.83c-21.13,0.19-31.01-9.31-31.19-30.49c-0.26-30.95-0.44-61.9-0.66-92.84
	c0.17-3.26-0.09-6.61,0.6-9.76C23.23,52.87,27.06,41.72,24.64,29.83z M58.55,67.28c0.4,4.56,0.95,11.34,1.6,18.11
	c0.47,4.9,3.39,7.02,8.16,6.65c25.7-1.97,51.39-3.95,77.08-5.98c4.55-0.36,7.02-2.98,6.76-7.58c-0.38-6.63-0.87-13.26-1.59-19.86
	c-0.46-4.25-2.83-6.38-7.48-6.01c-25.67,2.05-51.36,3.93-77.04,5.95C62.11,58.89,58.82,60.29,58.55,67.28z M159.14,73.47
	c0.18-1.19-0.87-3.08,1.02-3.34c2.3-0.31,1.79,1.99,1.98,3.25c0.35,2.29-0.03,4.73,0.55,6.94c1.78,6.78-1.02,10.46-6.9,13.89
	c-13.93,8.13-27.13,17.52-41.14,25.49c-6.2,3.52-5.05,11.74-11.37,14.56c-0.3,0.14-0.27,1.26-0.22,1.91
	c1.04,12.74,2.18,25.48,3.16,38.23c0.55,7.21,5.7,3.61,9.02,3.85c3.48,0.26,6.19-0.74,5.78-5.34c-1.11-12.41-2-24.85-2.96-37.27
	c-0.13-1.67-0.03-3.56-1.97-4.21c-7.97-2.68-3.69-5.74-0.06-8.1c11.7-7.63,22.92-16.5,35.56-22.08
	c15.26-6.73,16.19-17.43,13.3-30.88c-0.28-1.31-0.17-3.29-1.62-3.26c-4.99,0.1-5.03-3.34-5.66-6.75c-0.19-1.04-1.73-2.65-2.55-2.59
	c-1.87,0.13-1.05,2.05-0.98,3.16c0.27,4.31,0.68,8.61,1.16,12.9c0.2,1.77-0.64,4.88,1.42,4.89
	C159.07,78.72,159.13,75.68,159.14,73.47z M51.98,71.12c0.3,3.14,0.72,8.05,1.28,12.95c0.18,1.59,1.23,3.03,2.89,2.8
	c1.88-0.26,1.07-2.09,0.99-3.24c-0.3-4.76-0.69-9.51-1.14-14.26c-0.13-1.33,0.4-3.49-1.4-3.61C52.71,65.62,52.08,67.52,51.98,71.12z
	"/>
<path class="st11" d="M58.55,67.28c0.27-6.99,3.56-8.39,7.49-8.7c25.68-2.02,51.36-3.9,77.04-5.95c4.65-0.37,7.02,1.75,7.48,6.01
	c0.72,6.6,1.22,13.23,1.59,19.86c0.26,4.6-2.21,7.22-6.76,7.58C119.7,88.1,94,90.08,68.31,92.05c-4.77,0.37-7.69-1.75-8.16-6.65
	C59.5,78.62,58.95,71.84,58.55,67.28z"/>
<path class="st10" d="M159.15,73.48c-0.02,2.2-0.08,5.25-2.49,5.24c-2.06-0.01-1.22-3.12-1.42-4.89c-0.48-4.29-0.89-8.59-1.16-12.9
	c-0.07-1.11-0.89-3.02,0.98-3.16c0.82-0.06,2.36,1.55,2.55,2.59c0.64,3.42,0.67,6.86,5.66,6.75c1.45-0.03,1.34,1.95,1.62,3.26
	c2.89,13.45,1.96,24.15-13.3,30.88c-12.65,5.58-23.86,14.45-35.56,22.08c-3.63,2.37-7.91,5.43,0.06,8.1
	c1.94,0.65,1.84,2.55,1.97,4.21c0.97,12.43,1.85,24.86,2.96,37.27c0.41,4.61-2.3,5.6-5.78,5.34c-3.32-0.25-8.47,3.36-9.02-3.85
	c-0.97-12.75-2.11-25.48-3.16-38.23c-0.05-0.65-0.08-1.78,0.22-1.91c6.32-2.82,5.17-11.04,11.37-14.56
	c14.01-7.96,27.21-17.36,41.14-25.49c5.89-3.43,8.68-7.12,6.9-13.89c-0.58-2.21-0.2-4.65-0.55-6.94c-0.19-1.26,0.32-3.56-1.98-3.25
	C158.27,70.39,159.32,72.28,159.15,73.48z"/>
<path class="st12" d="M51.98,71.12c0.1-3.59,0.73-5.5,2.63-5.36c1.8,0.12,1.27,2.28,1.4,3.61c0.45,4.75,0.84,9.5,1.14,14.26
	c0.07,1.15,0.89,2.98-0.99,3.24c-1.66,0.23-2.71-1.21-2.89-2.8C52.7,79.17,52.28,74.25,51.98,71.12z"/>
</svg>
