<?xml version="1.0" encoding="utf-8"?>
<!-- Generator: Adobe Illustrator 24.3.0, SVG Export Plug-In . SVG Version: 6.00 Build 0)  -->
<svg version="1.1" id="Calque_1" xmlns="http://www.w3.org/2000/svg" xmlns:xlink="http://www.w3.org/1999/xlink" x="0px" y="0px"
	 viewBox="0 0 216 216" style="enable-background:new 0 0 216 216;" xml:space="preserve">
<style type="text/css">
	.st0{fill:#46767D;}
	.st1{fill:#7CCBC8;}
	.st2{fill:#9DAC3C;}
	.st3{fill:#FBB041;}
	.st4{fill:#DD654A;}
	.st5{fill:#AE8782;}
	.st6{fill:#535765;}
	.st7{fill:#DD654B;}
	.st8{fill:#FDFDFC;}
	.st9{fill:#FCFCFA;}
	.st10{fill:#FBF8F7;}
	.st11{fill:#FAFBFB;}
	.st12{fill:#EFF2F3;}
	.st13{fill:#B38D88;}
</style>
<rect y="0" class="st2" width="216" height="216"/>
<path class="st8" d="M112.55,109.3c17.46,0,34.92,0,52.38,0c2.92,0,6.25,0.07,6.39,3.87c0.12,3.21-2.68,4.46-5.54,4.42
	c-2.99-0.04-2.57,2.36-2.83,3.81c-2.94,15.9-13.63,25-25.76,34.85c-13.96,11.33-28.36,3.48-42.17,6.32
	c-4.09-6.35-11.46-8.42-16.95-12.95c-8.84-7.29-14.23-16.54-16.33-27.75c-0.4-2.16-0.36-4.37-3.56-4.32
	c-2.98,0.04-4.81-1.55-4.46-4.67c0.36-3.15,2.75-3.79,5.49-3.79c17.78,0.01,35.56,0.01,53.34,0.01
	C112.55,109.16,112.55,109.23,112.55,109.3z"/>
<path class="st10" d="M49.69,71.61c12.54,3.81,22.66,11.03,30.27,21.68c2.22,3.11,4.2,6.4,6.11,9.72c0.66,1.14,2.48,2.41,0.93,3.89
	c-1.37,1.3-3.36,0.83-4.67-0.11c-1.71-1.23-3.32-2.81-4.45-4.57c-6.04-9.41-14.22-15.52-25.24-18.15c-4.24-1.01-9.79-2.09-8.2-8.83
	C45.01,72.8,46.9,71.31,49.69,71.61z"/>
<path class="st10" d="M119.41,71.68c-0.67,4.41-3.29,7.65-7.24,9.94c-1.72,1-3.4,2.1-5.2,2.93c-1.43,0.66-1.66,4.21-3.98,2.2
	c-1.73-1.5-0.62-3.75,0.51-5.47c0.91-1.39,1.77-2.9,2.99-3.97c4.18-3.66,4.24-7.44,0.87-11.64c-0.82-1.02-1.31-2.31-1.9-3.5
	c-1.52-3.08-2.1-6.89,0.84-8.59c3.06-1.77,3.89,2.55,5.2,4.35C114.58,62.14,119.1,65.61,119.41,71.68z"/>
<path class="st12" d="M110.4,93.97c0.81-5.39,5.64-8.11,9.2-11.61c1.53-1.5,1.73,0.94,1.58,1.76c-1.03,5.59-7.32,8.13-8.38,13.91
	C112.74,98.36,110.85,95.94,110.4,93.97z"/>
</svg>
