<?xml version="1.0" encoding="utf-8"?>
<!-- Generator: Adobe Illustrator 24.3.0, SVG Export Plug-In . SVG Version: 6.00 Build 0)  -->
<svg version="1.1" id="Calque_1" xmlns="http://www.w3.org/2000/svg" xmlns:xlink="http://www.w3.org/1999/xlink" x="0px" y="0px"
	 viewBox="0 0 216 216" style="enable-background:new 0 0 216 216;" xml:space="preserve">
<style type="text/css">
	.st0{fill:#46767D;}
	.st1{fill:#7CCBC8;}
	.st2{fill:#9DAC3C;}
	.st3{fill:#FBB041;}
	.st4{fill:#DD654A;}
	.st5{fill:#AE8782;}
	.st6{fill:#535765;}
	.st7{fill:#DD654B;}
	.st8{fill:#FDFDFC;}
	.st9{fill:#FCFCFA;}
	.st10{fill:#FBF8F7;}
	.st11{fill:#FAFBFB;}
	.st12{fill:#EFF2F3;}
	.st13{fill:#B38D88;}
</style>
<rect y="0" class="st4" width="216" height="216"/>
<path class="st8" d="M90.99,141.06c0.23-2,0.95-3.8,0.53-5.28c-2-7.11-0.04-10.43,7.75-8.98c1.35,0.25,2.56-0.45,2.24-1.88
	c-0.76-3.36,2.3-7.3-1.46-10.17c-3.29-2.5-4.42-17.27-1.51-20.23c1.27-1.29,2.78-0.9,4.21-0.52c10.93,2.88,21.85,5.83,32.79,8.69
	c3.5,0.92,3.94,3.58,4.17,6.53c0.23,3.03-0.23,5.82-3.33,7.12c-5.3,2.24-2.2,6.87-2.77,10.26c-0.57,3.37,3.18,2.04,4.94,2.24
	c4.11,0.46,5.69,1.97,4.13,6.15c-0.62,1.67-1.15,3.77-0.7,5.39c2.61,9.43-1.65,10.62-9.87,9.75c-11.72-1.24-23.57-1.31-35.37-1.74
	C91.44,148.19,88.01,146.92,90.99,141.06z"/>
<path class="st10" d="M53.78,49.95c0.7,0.71,1.96,1.6,2.71,2.8c12.7,20.3,25.35,40.63,37.95,60.99c1.46,2.36,2.48,4.97-0.7,6.92
	c-3.52,2.16-4.77-0.86-6.13-3C75.08,97.86,62.6,78,50.1,58.16c-1.3-2.06-2.1-4.23-0.78-6.56C50.14,50.14,51.57,49.74,53.78,49.95z"
	/>
<path class="st10" d="M88.16,139.53c-1.77,8.61-8.44,13.25-16.65,11.58c-7.28-1.48-12.22-9.69-10.66-17.72
	c1.67-8.58,8.85-13.49,17.18-11.72C85.47,123.25,89.91,131.06,88.16,139.53z M80.41,138.11c0.38-4.02-0.79-7.13-4.65-7.86
	c-3.83-0.72-6.31,1.49-6.96,5.33c-0.62,3.7,1.17,6.17,4.71,6.91C77.17,143.25,79.44,141.34,80.41,138.11z"/>
<path class="st10" d="M161.39,125.83c7.59,1.42,12.88,9.88,11.21,17.95c-1.65,8.01-8.9,13.26-16.44,11.91
	c-7.95-1.43-12.62-9.36-10.85-18.42C146.83,129.51,153.96,124.44,161.39,125.83z M153.13,139.39c-0.26,3.92,0.74,7.06,4.79,7.63
	c3.35,0.47,5.88-1.45,6.45-4.82c0.61-3.59-0.53-6.72-4.57-7.56C155.9,133.82,154.1,136.27,153.13,139.39z"/>
<path class="st7" d="M80.41,138.11c-0.97,3.23-3.24,5.14-6.9,4.37c-3.54-0.74-5.34-3.21-4.71-6.91c0.65-3.84,3.13-6.05,6.96-5.33
	C79.62,130.98,80.79,134.09,80.41,138.11z"/>
<path class="st7" d="M153.13,139.39c0.97-3.11,2.77-5.57,6.67-4.75c4.04,0.84,5.18,3.97,4.57,7.56c-0.57,3.37-3.1,5.29-6.45,4.82
	C153.87,146.45,152.87,143.31,153.13,139.39z"/>
</svg>
