<?xml version="1.0" encoding="utf-8"?>
<!-- Generator: Adobe Illustrator 24.3.0, SVG Export Plug-In . SVG Version: 6.00 Build 0)  -->
<svg version="1.1" id="Calque_1" xmlns="http://www.w3.org/2000/svg" xmlns:xlink="http://www.w3.org/1999/xlink" x="0px" y="0px"
	 viewBox="0 0 216 216" style="enable-background:new 0 0 216 216;" xml:space="preserve">
<style type="text/css">
	.st0{fill:#46767D;}
	.st1{fill:#7CCBC8;}
	.st2{fill:#9DAC3C;}
	.st3{fill:#FBB041;}
	.st4{fill:#DD654A;}
	.st5{fill:#AE8782;}
	.st6{fill:#535765;}
	.st7{fill:#DD654B;}
	.st8{fill:#FDFDFC;}
	.st9{fill:#FCFCFA;}
	.st10{fill:#FBF8F7;}
	.st11{fill:#FAFBFB;}
	.st12{fill:#EFF2F3;}
	.st13{fill:#B38D88;}
</style>
<rect x="1.16" class="st1" width="214.84" height="214.84"/>
<path class="st11" d="M143.39,157.45c1.15,3.63,2.3,7.27,3.47,10.9c0.42,1.29,0.95,2.77-0.3,3.69c-1.2,0.89-2.88,0.44-3.57-0.72
	c-7.96-13.37-20.62-11.92-33.7-12.07c-23.52-0.26-42.14-23.03-39.87-46.95c0.91-9.64-6.81-18.38-16.77-18.84
	c-5.35-0.24-8.44-3.13-9.1-8.15c-0.57-4.31,1.16-8.13,5.64-9.39c4.4-1.24,9.56-0.84,11.26,3.8c1.97,5.36,5.62,8.44,9.95,11.23
	c1.7,1.1,3.46,4.36,5.76,1.46c2.49-3.14,7.65-6.01,4.42-10.96c-4.7-7.21-7.95-15.63-16.84-19.64c-4.04-1.82-4.39-6.49-2.62-10.57
	c1.83-4.19,5.56-5.77,9.8-5.2c4.39,0.58,7.59,3.44,7.48,8c-0.22,9.74,7.16,15.37,11.65,22.5c1.94,3.08,4.9-0.07,7.1-0.93
	c22.57-8.83,48.59,0.94,58.57,22.9c7.13,15.7,4.91,30.96-5.72,44.52c-2.59,3.31-1.6,4.44,0.9,6.42c4.16,3.3,8.22,6.74,12.15,10.31
	c2.13,1.93,5.89,4.31,3.88,7.19c-2.43,3.49-5.64-0.25-8.31-1.37c-5.32-2.24-9.5-6.7-15.3-8.07c-0.1-0.1-0.2-0.19-0.3-0.29
	C143.15,157.29,143.27,157.37,143.39,157.45z M85.66,130.64c-1.47,0.92-5.44-2.68-5.76,0.94c-0.28,3.12,3.66,3.97,6.91,4.14
	c6.39,0.32,13.44-0.03,11.91,10.04c-0.23,1.52,0.5,3.74,2.38,4.66c0.99,0.49,2.29,1.06,3.22,0.8c1.56-0.44,0.69-1.83,0.51-2.93
	c-3.64-23.34,2.22-44.06,17.18-62.31c1.16-1.42,4.53-2.99,2.36-4.98c-2.18-2-4.94-0.29-6.87,1.95c-9.88,11.47-9.9,11.46-23.89,5.69
	c-0.62-0.25-1.21-0.67-1.84-0.75c-1.99-0.26-3.86,0.34-4.5,2.28c-0.73,2.19,1.67,2.09,2.77,2.64c4.02,2,8.09,3.91,12.27,5.54
	c2.99,1.16,4.4,3.04,2.2,5.53c-2.51,2.83,0.59,10.49-7.17,8.71c-5.34-1.22-10.59-2.85-15.89-4.27c-1.67-0.45-3.85-1.86-4.61,0.79
	c-0.76,2.66,1.34,3.81,3.61,4.39c5,1.27,9.97,2.69,15.02,3.69c3.09,0.61,4.11,2.04,3.95,5.12c-0.3,5.9-0.81,11.17-9.09,8.41
	C89.1,130.3,87.66,130.64,85.66,130.64z M115.44,145.93c1.58,1.78-2.42,6.85,2.27,7.13c5.84,0.34,3.21-5.14,3.26-7.98
	c0.3-18.96,7.28-35.16,19.49-49.38c1.19-1.39,4.11-2.59,1.26-5.15c-2.87-2.58-4.09,0.13-5.52,1.72
	C122.67,107.33,115.87,125.05,115.44,145.93z M131.49,146.21c0.09,0.3,0.15,1.71,0.68,1.92c0.69,0.28,2.1-0.12,2.59-0.72
	c1.13-1.37,2.28-2.94,2.73-4.61c2.62-9.71,6.7-18.67,12.84-26.68c1.32-1.73,2.36-3.71,1.92-5.98c-0.16-0.85-0.96-1.58-1.46-2.37
	c-0.63,0.47-1.39,0.84-1.87,1.43C140.12,119.88,134.06,131.87,131.49,146.21z"/>
<path class="st1" d="M85.66,130.64c2,0,3.45-0.34,4.65,0.06c8.28,2.76,8.79-2.51,9.09-8.41c0.16-3.08-0.86-4.51-3.95-5.12
	c-5.05-1-10.02-2.42-15.02-3.69c-2.28-0.58-4.37-1.73-3.61-4.39c0.76-2.66,2.94-1.24,4.61-0.79c5.3,1.42,10.55,3.04,15.89,4.27
	c7.76,1.78,4.65-5.87,7.17-8.71c2.2-2.48,0.79-4.36-2.2-5.53c-4.18-1.63-8.25-3.54-12.27-5.54c-1.1-0.55-3.5-0.44-2.77-2.64
	c0.65-1.94,2.52-2.53,4.5-2.28c0.64,0.08,1.23,0.5,1.84,0.75c14,5.77,14.01,5.78,23.89-5.69c1.94-2.25,4.69-3.95,6.87-1.95
	c2.17,1.99-1.2,3.56-2.36,4.98c-14.96,18.25-20.81,38.96-17.18,62.31c0.17,1.1,1.05,2.49-0.51,2.93c-0.93,0.26-2.23-0.31-3.22-0.8
	c-1.88-0.93-2.62-3.14-2.38-4.66c1.54-10.07-5.52-9.71-11.91-10.04c-3.25-0.16-7.19-1.02-6.91-4.14
	C80.22,127.96,84.18,131.56,85.66,130.64z"/>
<path class="st1" d="M115.44,145.93c0.43-20.89,7.23-38.61,20.76-53.67c1.43-1.59,2.65-4.3,5.52-1.72c2.85,2.56-0.07,3.76-1.26,5.15
	c-12.21,14.22-19.19,30.42-19.49,49.38c-0.05,2.84,2.58,8.33-3.26,7.98C113.02,152.78,117.03,147.71,115.44,145.93z"/>
<path class="st1" d="M131.49,146.21c2.57-14.34,8.62-26.34,17.43-37.02c0.49-0.59,1.24-0.96,1.87-1.43c0.51,0.79,1.3,1.52,1.46,2.37
	c0.43,2.27-0.6,4.25-1.92,5.98c-6.14,8.01-10.22,16.97-12.84,26.68c-0.45,1.67-1.6,3.24-2.73,4.61c-0.5,0.6-1.9,1-2.59,0.72
	C131.64,147.92,131.58,146.52,131.49,146.21z"/>
<path class="st1" d="M143.39,157.45c-0.12-0.08-0.24-0.15-0.37-0.23c0.1,0.1,0.2,0.19,0.3,0.29
	C143.33,157.51,143.39,157.45,143.39,157.45z"/>
</svg>
