<?xml version="1.0" encoding="utf-8"?>
<!-- Generator: Adobe Illustrator 24.3.0, SVG Export Plug-In . SVG Version: 6.00 Build 0)  -->
<svg version="1.1" id="Calque_1" xmlns="http://www.w3.org/2000/svg" xmlns:xlink="http://www.w3.org/1999/xlink" x="0px" y="0px"
	 viewBox="0 0 216 216" style="enable-background:new 0 0 216 216;" xml:space="preserve">
<style type="text/css">
	.st0{fill:#46767D;}
	.st1{fill:#7CCBC8;}
	.st2{fill:#9DAC3C;}
	.st3{fill:#FBB041;}
	.st4{fill:#DD654A;}
	.st5{fill:#AE8782;}
	.st6{fill:#535765;}
	.st7{fill:#DD654B;}
	.st8{fill:#FDFDFC;}
	.st9{fill:#FCFCFA;}
	.st10{fill:#FBF8F7;}
	.st11{fill:#FAFBFB;}
	.st12{fill:#EFF2F3;}
	.st13{fill:#B38D88;}
</style>
<rect y="0.4" class="st7" width="216" height="216"/>
<path class="st10" d="M77.67,137.09c6.02-0.04,11.72,0.37,17.31-0.25c6.09-0.68,6.58,3.12,6.6,7.2c0.03,4.94-4.01,2.71-6.25,2.78
	c-7.47,0.25-14.96,0.19-22.44-0.01c-3.98-0.11-6.08,0.97-6.44,5.41c-0.19,2.35,0.75,6.23-3.61,6.58c-5.03,0.4-8.61,0.73-7.15-7.07
	c5.79-31.05,10.79-62.25,15.89-93.42c0.66-4,2.51-5.31,6.28-5.33c20.8-0.08,41.59-0.23,62.39-0.44c3.32-0.03,5.14,0.93,5.79,4.53
	c5.82,32.08,11.79,64.13,17.72,96.19c0.41,2.24,1.57,4.9-2.3,5.15c-3.14,0.2-7.66,1.78-7.85-3.24c-0.31-8.13-4.37-9.31-11.36-8.57
	c-6.57,0.7-13.29,0.29-19.93,0.02c-4.15-0.17-5.65,0.82-4.66,5.32c0.48,2.18,3.69,6.11-1.72,7.03c-4.64,0.79-7.73-0.32-8.7-5.97
	c-4.86-28.18-10.16-56.29-15.11-84.45c-0.69-3.91-1.89-5.61-6.25-5.59c-4.55,0.02-5.19,2.53-5.57,5.88
	c-0.13,1.16-0.07,2.38-0.42,3.46c-2.16,6.56-1.34,9.87,7.01,8.66c5.79-0.84,3.66,5.19,4.38,8.1c0.69,2.78-2.46,1.56-3.87,1.59
	c-9.81,0.25-14.91,6.4-13.45,16.23c0.3,2,1.56,1.88,2.85,1.88c4.32,0,8.65-0.21,12.97-0.07c2.36,0.08,5.12-1.09,6.07,3.14
	c1.19,5.27,0.89,8.24-5.54,7.27c-1.46-0.22-2.99,0.01-4.49,0.01c-18.24,0.03-13.11-1.93-16.04,14.93
	C68.68,140.32,75.54,135.01,77.67,137.09z M120.3,136.74c7.39-0.05,12.7-0.13,18.01-0.11c11.78,0.04,11.44,0.11,9.77-11.49
	c-0.76-5.27-2.69-6.86-7.86-6.54c-8.1,0.5-16.25,0.27-24.38,0.42c-1.22,0.02-2.75-0.53-3.53,1.01
	C109.69,125.26,116.6,136.71,120.3,136.74z M117.61,108.42c5.32-0.06,10.64-0.23,15.96-0.16c11.32,0.15,10.97,0.25,9.33-11.06
	c-0.78-5.37-2.8-7.13-8.12-6.81c-8.29,0.5-16.61,0.32-24.92,0.48c-1.01,0.02-2.95-0.64-2.72,1.05c0.72,5.25,1.27,10.67,3.1,15.57
	C111.22,110.05,115.12,107.63,117.61,108.42z M128.83,62.94c-5.3,0.03-10.28,0.09-15.27,0.07c-11.96-0.05-11.76-0.09-9.91,11.82
	c0.67,4.28,1.9,6.27,6.68,6c8.61-0.47,17.26-0.25,25.88-0.42c1.12-0.02,3.38,0.76,3.13-1.22c-0.64-5.09-1.19-10.35-3.05-15.05
	C135.21,61.41,131.15,63.59,128.83,62.94z"/>
<path class="st7" d="M120.3,136.74c-3.7-0.03-10.61-11.48-7.99-16.71c0.78-1.55,2.31-0.99,3.53-1.01
	c8.13-0.15,16.28,0.09,24.38-0.42c5.16-0.32,7.1,1.28,7.86,6.54c1.67,11.6,2.01,11.53-9.77,11.49
	C133,136.62,127.69,136.7,120.3,136.74z"/>
<path class="st7" d="M117.61,108.42c-2.48-0.79-6.39,1.63-7.35-0.93c-1.83-4.9-2.39-10.32-3.1-15.57c-0.23-1.7,1.7-1.03,2.72-1.05
	c8.31-0.16,16.63,0.03,24.92-0.48c5.32-0.32,7.34,1.44,8.12,6.81c1.64,11.31,1.98,11.21-9.33,11.06
	C128.26,108.18,122.93,108.36,117.61,108.42z"/>
<path class="st7" d="M128.83,62.94c2.32,0.65,6.39-1.53,7.47,1.21c1.85,4.7,2.41,9.96,3.05,15.05c0.25,1.97-2.01,1.19-3.13,1.22
	c-8.63,0.17-17.28-0.05-25.88,0.42c-4.78,0.26-6.01-1.72-6.68-6c-1.85-11.91-2.05-11.87,9.91-11.82
	C118.54,63.03,123.53,62.97,128.83,62.94z"/>
</svg>
